<?xml version="1.0" standalone="no"?>
<!DOCTYPE svg PUBLIC "-//W3C//DTD SVG 1.1//EN" "http://www.w3.org/Graphics/SVG/1.1/DTD/svg11.dtd" >
<svg xmlns="http://www.w3.org/2000/svg">
<metadata></metadata>
<defs>
<font id="doppio_oneregular" horiz-adv-x="1276" >
<font-face units-per-em="2048" ascent="1638" descent="-410" />
<missing-glyph horiz-adv-x="512" />
<glyph unicode="&#xfb01;" horiz-adv-x="1316" d="M90 860v195h174v180q0 108 31 177.5t87.5 109t136 54.5t177.5 15q67 0 129 -7.5t110 -15.5q56 -10 105 -22v-188q-51 5 -104 9q-45 3 -99.5 6t-103.5 3q-62 0 -106 -7.5t-71.5 -26.5t-40 -50t-12.5 -77v-160h650v-1055h-238v860h-412v-860h-239v860h-174z" />
<glyph unicode="&#xfb02;" horiz-adv-x="1302" d="M90 858v197h147v217q0 94 35.5 155.5t99 96.5t150.5 49t190 14q90 0 167 -11t134 -25q67 -16 123 -35v-1516h-237v858h-424v-858h-238v858h-147zM475 1055h424v310q-42 4 -93.5 7.5t-101.5 3.5q-62 0 -105.5 -7.5t-71 -24.5t-40 -45t-12.5 -68v-176z" />
<glyph horiz-adv-x="2048" />
<glyph horiz-adv-x="2048" />
<glyph unicode="&#xd;" horiz-adv-x="1178" />
<glyph unicode=" "  horiz-adv-x="512" />
<glyph unicode="&#x09;" horiz-adv-x="512" />
<glyph unicode="&#xa0;" horiz-adv-x="512" />
<glyph unicode="!" horiz-adv-x="513" d="M139 139q0 47 6.5 76.5t24 46.5t47 23t74.5 6q46 0 76 -6t47 -23t24 -46.5t7 -76.5q0 -46 -7 -75.5t-24 -47t-47 -24t-76 -6.5q-45 0 -74.5 6.5t-47 24t-24 47t-6.5 75.5zM172 436v991h240v-991h-240z" />
<glyph unicode="&#x22;" horiz-adv-x="860" d="M114 1630h238l-23 -483h-192zM507 1630h238l-23 -483h-192z" />
<glyph unicode="#" horiz-adv-x="1319" d="M60 376v184h239l71 309h-206v184h249l86 375h210l-86 -375h274l86 375h210l-86 -375h200v-184h-243l-71 -309h210v-184h-252l-86 -376h-210l86 376h-274l-86 -376h-210l86 376h-197zM509 560h274l71 309h-274z" />
<glyph unicode="$" horiz-adv-x="1110" d="M108 1047q0 92 24 162t68.5 119.5t108 79.5t142.5 41v183h235v-183q58 -6 105.5 -15t81.5 -17q40 -10 70 -20v-185q-45 6 -95 11q-43 5 -96.5 8.5t-110.5 3.5q-89 0 -146 -6t-90 -25t-46 -54t-13 -93q0 -32 3.5 -57t16 -44t36 -33t63.5 -26l271 -78q52 -15 92.5 -31.5 t70.5 -39t51.5 -52.5t34.5 -71.5t19 -97.5t6 -129q0 -97 -14 -170t-50 -124.5t-99 -82.5t-161 -43v-183h-235v176q-94 3 -157.5 14t-101.5 22q-46 13 -72 30v176q51 -7 110 -12q51 -5 116.5 -8t138.5 -3q97 0 154 12.5t87 37t38.5 60.5t8.5 83q0 37 -3.5 67.5t-16.5 54.5 t-37 41.5t-66 28.5l-291 76q-69 18 -117 48.5t-77.5 77.5t-43 113.5t-13.5 156.5z" />
<glyph unicode="%" horiz-adv-x="1526" d="M65 1196q0 104 22.5 173t64.5 110t101 58t133 17q73 0 132.5 -17t101.5 -58t65 -110t23 -173q0 -103 -23 -171.5t-65 -110t-101.5 -59t-132.5 -17.5q-74 0 -133 17.5t-101 59t-64.5 110t-22.5 171.5zM184 0l950 1554h223l-952 -1554h-221zM259 1196q0 -53 7.5 -86.5 t23.5 -53t40 -27t56 -7.5q34 0 58 7.5t39.5 27t22.5 53t7 86.5t-7 86.5t-22.5 53t-39.5 27t-58 7.5q-32 0 -56 -7.5t-40 -27t-23.5 -53t-7.5 -86.5zM822 328q0 103 23 171.5t65 110t101.5 59t132.5 17.5q74 0 134 -17.5t102 -59t65 -110t23 -171.5q0 -104 -23 -173 t-65 -110.5t-102 -58.5t-134 -17q-73 0 -132.5 17t-101.5 58.5t-65 110.5t-23 173zM1017 328q0 -53 7 -87t22.5 -53.5t39.5 -26.5t58 -7t58 7t39.5 26.5t22.5 53.5t7 87t-7 86.5t-22.5 53t-39.5 27t-58 7.5t-58 -7.5t-39.5 -27t-22.5 -53t-7 -86.5z" />
<glyph unicode="&#x26;" horiz-adv-x="1263" d="M98 371q0 54 10.5 101.5t39 93t78 92t127.5 100.5q-51 57 -84.5 103t-54 88t-28.5 84.5t-8 92.5q0 63 13 122.5t53 105.5t114.5 74t198.5 28q121 0 197.5 -28t120.5 -75.5t60.5 -110t16.5 -130.5q0 -70 -9.5 -117.5t-39 -88t-83 -81.5t-140.5 -98l238 -263 q14 51 21.5 96.5t10.5 68.5h191q-2 -32 -7.5 -73.5t-14 -87t-19.5 -91.5t-24 -86l267 -291h-284l-104 111q-84 -75 -182 -107.5t-204 -32.5q-126 0 -215.5 20.5t-146 68t-83 124t-26.5 187.5zM336 365q0 -47 10.5 -81.5t37.5 -57t73.5 -33.5t117.5 -11q27 0 57.5 3.5 t62 12.5t62 25t57.5 40l-317 341q-55 -41 -87 -72t-48.5 -58t-21 -53t-4.5 -56zM399 1110q0 -23 11 -49.5t30.5 -55.5t45.5 -60.5t56 -64.5q61 40 98.5 69t57.5 54t26.5 50t6.5 57q0 44 -7.5 74t-26.5 49t-51.5 27t-82.5 8q-49 0 -81 -9t-50.5 -28.5t-25.5 -49t-7 -71.5z " />
<glyph unicode="'" horiz-adv-x="513" d="M137 1630h238l-23 -483h-192z" />
<glyph unicode="(" horiz-adv-x="648" d="M135 725q0 137 12 252.5t32.5 211.5t46 173t52.5 136q63 139 144 224h186q-64 -116 -114 -267q-21 -65 -41.5 -143.5t-36.5 -170t-25.5 -195.5t-9.5 -219t9.5 -219t25.5 -195.5t36.5 -170t41.5 -142.5q50 -151 114 -266h-186q-81 86 -144 224q-27 59 -52.5 135t-46 171 t-32.5 210t-12 251z" />
<glyph unicode=")" horiz-adv-x="646" d="M40 -266q63 115 113 266q21 64 41.5 142.5t36.5 170t26 195.5t10 219t-10 219t-26 195.5t-36.5 170t-41.5 143.5q-50 151 -113 267h186q80 -85 142 -224q27 -59 52.5 -136t45.5 -173t32.5 -211.5t12.5 -252.5q0 -136 -12.5 -251t-32.5 -210t-45.5 -171t-52.5 -135 q-62 -138 -142 -224h-186z" />
<glyph unicode="*" horiz-adv-x="866" d="M6 1174l62 192l274 -98l-8 286h203l-11 -294l271 102l63 -197l-283 -80l181 -225l-166 -121l-164 240l-160 -238l-166 121l181 232z" />
<glyph unicode="+" horiz-adv-x="1018" d="M51 561v203h348v377h222v-377h346v-199h-344v-377h-222v373h-350z" />
<glyph unicode="," horiz-adv-x="512" d="M103 -334q22 30 42 68t36 80t26 85t11 82q-60 8 -86.5 40.5t-26.5 105.5q0 45 7 75t24.5 47.5t46.5 24.5t74 7q51 0 81.5 -14.5t46.5 -41.5t21 -66t5 -89q0 -75 -23 -150.5t-56.5 -140t-71.5 -112.5t-67 -66z" />
<glyph unicode="-" horiz-adv-x="794" d="M60 475v227h674v-227h-674z" />
<glyph unicode="." horiz-adv-x="512" d="M103 139q0 47 6.5 76.5t24 46.5t47 23t74.5 6q46 0 76 -6t47 -23t24 -46.5t7 -76.5q0 -46 -7 -75.5t-24 -47t-47 -24t-76 -6.5q-45 0 -74.5 6.5t-47 24t-24 47t-6.5 75.5z" />
<glyph unicode="/" horiz-adv-x="924" d="M10 0l643 1554h241l-643 -1554h-241z" />
<glyph unicode="0" horiz-adv-x="1375" d="M155 727q0 221 30.5 363t95.5 223.5t165.5 113t241.5 31.5q140 0 241 -31.5t165.5 -113t95 -223.5t30.5 -363q0 -147 -13.5 -260.5t-41 -197.5t-70.5 -141.5t-102 -92.5t-135 -50.5t-170 -15.5t-170.5 15.5t-135.5 50.5t-102 92.5t-70.5 141.5t-41 197.5t-13.5 260.5z M413 727q0 -138 11 -239.5t41.5 -167.5t84 -98t138.5 -32t139 32.5t84.5 98.5t41.5 167t11 239t-11 234.5t-41.5 157t-84.5 87.5t-139 27t-138.5 -27t-84 -87t-41.5 -156.5t-11 -235.5z" />
<glyph unicode="1" horiz-adv-x="816" d="M86 1204l67 223h434v-1427h-239v1204h-262z" />
<glyph unicode="2" horiz-adv-x="1151" d="M105 0v143q174 181 294.5 317t195.5 240.5t109 185t34 150.5q0 49 -12.5 86t-43.5 61.5t-84.5 37t-134.5 12.5q-57 0 -112.5 -5.5t-100.5 -11.5q-53 -7 -102 -16v184q49 20 111 37q53 14 125.5 25.5t160.5 11.5q122 0 206.5 -25.5t137 -75.5t75.5 -126t23 -176 q0 -77 -26 -164t-87.5 -188.5t-163 -220t-251.5 -257.5v-2h528v-223h-882z" />
<glyph unicode="3" horiz-adv-x="1135" d="M130 33v180q50 -7 102 -12q45 -5 98 -8t103 -3q70 0 126 7.5t95 29.5t60 62.5t22 107.5q1 80 -19 124.5t-69 66t-131.5 28t-206.5 9.5l2 213q127 0 204.5 11t119 36.5t54.5 67.5t12 104q-1 51 -15.5 86t-47.5 56.5t-86 31.5t-130 10q-44 0 -93 -5t-91 -10q-49 -6 -97 -14 v172q53 20 115 37q54 14 124 25.5t151 11.5q215 0 316 -96.5t101 -292.5q0 -64 -12 -112t-32 -83t-45.5 -58t-53 -37.5t-54 -21t-48.5 -7.5v-2q18 -2 46 -6.5t59.5 -17t63 -35.5t56.5 -61.5t41 -94.5t16 -134q0 -124 -32.5 -207t-93 -133t-146 -71t-191.5 -21q-75 0 -146 10 t-126 23q-64 14 -121 33z" />
<glyph unicode="4" horiz-adv-x="1224" d="M65 292v158l547 977h359v-922h153v-213h-153v-292h-238v292h-668zM330 505h403l2 732h-6z" />
<glyph unicode="5" horiz-adv-x="1129" d="M145 35v176q47 -7 97 -11q43 -4 95 -7t103 -3q84 0 142.5 14.5t95.5 45t54 78t17 114.5q0 66 -10 111t-35.5 73t-69.5 40t-112 12q-65 0 -125 -5t-107 -10q-55 -6 -102 -14v781h760v-226h-523v-321q24 3 51 6q23 2 53 4t62 2q102 0 177.5 -20.5t126 -73.5t75.5 -144.5 t25 -232.5q0 -136 -36.5 -224t-100 -139.5t-151 -71.5t-189.5 -20q-83 0 -151 10t-118 23q-58 14 -104 33z" />
<glyph unicode="6" horiz-adv-x="1187" d="M155 399v551q0 115 23.5 208.5t78 159.5t144 102t221.5 36q86 0 152.5 -11t113.5 -24q55 -16 95 -35v-178q-39 7 -84 12q-38 5 -87.5 9t-103.5 4q-87 0 -147 -8.5t-97.5 -36t-54 -80t-16.5 -139.5v-133q41 20 86 35t90 24.5t88 14.5t82 5q77 0 140.5 -23t108.5 -77.5 t70 -144.5t25 -224q0 -131 -31.5 -222t-92 -147.5t-148.5 -82t-201 -25.5q-104 0 -188 24t-143.5 76t-91.5 133.5t-32 196.5zM393 449q0 -68 8.5 -117t32 -80.5t66 -46.5t110.5 -15q67 0 110.5 14.5t69 46.5t35.5 82t10 122q0 78 -12 126t-39 74.5t-70 35.5t-104 9 q-42 0 -81.5 -6t-70 -13t-48.5 -13t-17 -6v-213z" />
<glyph unicode="7" horiz-adv-x="1073" d="M65 1204v223h938v-157l-528 -1270h-277l522 1200v4h-655z" />
<glyph unicode="8" horiz-adv-x="1254" d="M149 406q0 64 12.5 113.5t32.5 86.5t44 62t47.5 41t43 23t29.5 9v2q-19 4 -48.5 20t-57.5 49.5t-48 88.5t-20 137q0 91 20.5 168t71.5 132.5t137 86.5t217 31q130 0 216 -31t136 -86.5t70.5 -132.5t20.5 -168q0 -82 -19.5 -136.5t-47.5 -87.5t-57.5 -49t-49.5 -22v-2 q10 -2 29.5 -9t42.5 -23t46.5 -41t43 -62t32 -86.5t12.5 -113.5q0 -134 -35.5 -218.5t-99 -132.5t-151.5 -66t-193 -18t-192.5 18t-151 66t-98.5 132.5t-35 218.5zM393 406q0 -72 14.5 -115t44 -66t73.5 -30t103 -7t103.5 7t74 30t44 66t14.5 115q0 71 -14.5 116.5t-44 72 t-74 36.5t-103.5 10t-103 -10t-73.5 -36.5t-44 -72t-14.5 -116.5zM415 1038q0 -57 11.5 -97.5t37 -65.5t66 -36.5t98.5 -11.5t98.5 11.5t65.5 36.5t36 65.5t11 97.5t-11 96t-36 63.5t-65.5 35t-98.5 10.5t-98.5 -10.5t-66 -35t-37 -63.5t-11.5 -96z" />
<glyph unicode="9" horiz-adv-x="1200" d="M115 973q0 144 31.5 237t92 148t148.5 76.5t201 21.5q98 0 169.5 -12.5t122.5 -42t83 -79t50.5 -122.5t25 -172t6.5 -229v-449q0 -102 -28.5 -174.5t-88.5 -118t-153.5 -67t-223.5 -21.5q-65 0 -127 9t-111 20q-57 12 -108 29v190q39 -7 85 -11q39 -5 89.5 -8t104.5 -3 q86 0 147 9t99.5 31t56.5 59.5t18 94.5v178q-41 -19 -86 -32t-90 -21.5t-88 -12t-82 -3.5q-77 0 -140.5 24t-108.5 79.5t-70 146.5t-25 225zM359 973q0 -82 12.5 -133t40.5 -79t71 -38t105 -10q42 0 81.5 4.5t70 9.5t48.5 9.5t17 4.5v242q0 75 -10 123.5t-35 76.5t-66.5 39 t-105.5 11q-65 0 -108.5 -10.5t-70.5 -39t-38.5 -79t-11.5 -131.5z" />
<glyph unicode=":" horiz-adv-x="512" d="M103 139q0 47 6.5 76.5t24 46.5t47 23t74.5 6q46 0 76 -6t47 -23t24 -46.5t7 -76.5q0 -46 -7 -75.5t-24 -47t-47 -24t-76 -6.5q-45 0 -74.5 6.5t-47 24t-24 47t-6.5 75.5zM103 819q0 47 6.5 76.5t24 46.5t47 23t74.5 6q46 0 76 -6t47 -23t24 -46.5t7 -76.5 q0 -46 -7 -75.5t-24 -47t-47 -24t-76 -6.5q-45 0 -74.5 6.5t-47 24t-24 47t-6.5 75.5z" />
<glyph unicode=";" horiz-adv-x="512" d="M103 -334q22 30 42 68t36 80t26 85t11 82q-60 8 -86.5 40.5t-26.5 105.5q0 45 7 75t24.5 47.5t46.5 24.5t74 7q51 0 81.5 -14.5t46.5 -41.5t21 -66t5 -89q0 -75 -23 -150.5t-56.5 -140t-71.5 -112.5t-67 -66zM105 819q0 47 6.5 76.5t24 46.5t47 23t74.5 6q46 0 76 -6 t47 -23t24 -46.5t7 -76.5q0 -46 -7 -75.5t-24 -47t-47 -24t-76 -6.5q-45 0 -74.5 6.5t-47 24t-24 47t-6.5 75.5z" />
<glyph unicode="&#x3c;" horiz-adv-x="969" d="M72 418v336l815 364v-268l-621 -252v-16l621 -252v-271z" />
<glyph unicode="=" horiz-adv-x="1031" d="M60 307v207h911v-207h-911zM60 729v205h911v-205h-911z" />
<glyph unicode="&#x3e;" horiz-adv-x="969" d="M82 68v270l620 252v16l-620 252v268l815 -364v-336z" />
<glyph unicode="?" horiz-adv-x="1026" d="M117 1208v181q-1 0 27 9.5t79 21t122 21t157 9.5q82 0 159 -19t137 -67t96 -131.5t36 -212.5q0 -111 -30 -185.5t-79 -122t-111 -73.5t-126 -39v-178h-238v346q86 7 150 20t106 40.5t63 72.5t21 115q0 68 -18.5 111t-55.5 67.5t-91 33.5t-126 9q-45 0 -93 -5t-90 -10 q-48 -6 -95 -14zM313 139q0 47 6.5 76.5t24 46.5t47 23t74.5 6q46 0 76 -6t47 -23t24 -46.5t7 -76.5q0 -46 -7 -75.5t-24 -47t-47 -24t-76 -6.5q-45 0 -74.5 6.5t-47 24t-24 47t-6.5 75.5z" />
<glyph unicode="@" horiz-adv-x="1660" d="M126 776q0 214 50.5 362.5t147 241t237.5 133.5t321 41q141 0 249 -17.5t187 -55.5t132.5 -98.5t85.5 -147t45.5 -200.5t13.5 -259q0 -121 -28 -206.5t-76.5 -139.5t-113.5 -79.5t-139 -26.5q-8 0 -15 -0.5t-15 -0.5q-38 0 -68 3t-52 7q-26 4 -46 11l-27 76 q-25 -15 -53.5 -31.5t-61 -31t-68 -24t-73.5 -9.5q-143 0 -215 105.5t-72 326.5t72 326.5t215 105.5q52 0 99 -12t83 -26q42 -17 78 -38l25 62h166v-680q55 0 91.5 12t58.5 43t31 85t9 138q0 103 -4.5 186.5t-22 149t-51 114t-91 80t-143 47t-206.5 15.5q-157 0 -264 -34.5 t-173 -107t-95 -184.5t-29 -266q0 -161 27.5 -276.5t92.5 -190t172.5 -110t268.5 -35.5q157 0 264 9.5t174 20.5q78 13 127 31v-168q-57 -24 -140 -42q-71 -16 -176.5 -29t-248.5 -13q-191 0 -332.5 42.5t-236 138t-141 249.5t-46.5 377zM683 756q0 -78 11.5 -127.5 t32 -77.5t48.5 -38.5t62 -10.5q31 0 60 4t52 9q26 5 50 13v443q-25 9 -51 17q-23 7 -52 12.5t-61 5.5t-59.5 -12t-48 -41t-32.5 -77t-12 -120z" />
<glyph unicode="A" d="M14 0l463 1427h318l467 -1427h-265l-120 387h-486l-115 -387h-262zM455 602h356l-176 604h-4z" />
<glyph unicode="B" horiz-adv-x="1312" d="M182 0v1427h559q105 0 179 -23.5t121.5 -72t69.5 -122t22 -173.5q0 -85 -17.5 -138t-43.5 -84t-58 -44.5t-60 -19.5v-2q18 -2 43 -8.5t52 -20t53 -36t47 -57.5t34 -84.5t13 -115.5q0 -132 -26 -215t-78.5 -130t-133 -64t-188.5 -17h-588zM422 219h319q46 0 83.5 7.5 t64 29.5t41 61.5t14.5 104.5t-12.5 104.5t-39 60.5t-67 27.5t-96.5 6.5h-307v-402zM422 825h272q54 0 92 7t62.5 28.5t35.5 60.5t11 103q0 53 -13 88.5t-38 56.5t-61.5 30t-82.5 9h-278v-383z" />
<glyph unicode="C" horiz-adv-x="1179" d="M115 725q0 148 25 259.5t67 192.5t98 133.5t118 83.5t126 43.5t123 12.5q100 0 174 -10t124 -22q58 -14 99 -32v-172q-41 3 -88 6q-40 2 -91.5 4.5t-107.5 2.5q-51 0 -101.5 -4t-97 -20.5t-86.5 -48.5t-69.5 -87.5t-46 -138.5t-16.5 -201q0 -124 17 -212t47 -147t70 -93 t87 -51.5t98 -22t102 -4.5q66 0 120 2t92 4q45 3 81 6v-172q-44 -18 -104 -31q-52 -12 -127.5 -21.5t-175.5 -9.5q-69 0 -137.5 13t-130 45t-114.5 86.5t-92 138t-61 198.5t-22 269z" />
<glyph unicode="D" horiz-adv-x="1370" d="M182 0v1427h512q79 0 151.5 -11t134.5 -39t113 -78t87 -128t55.5 -188t19.5 -258q0 -153 -18 -266.5t-52 -194t-83 -132t-111.5 -81t-137 -40.5t-159.5 -11h-512zM422 223h207q51 0 99 2.5t89.5 17.5t76 45.5t59 86.5t38 141.5t13.5 210.5q0 116 -13 196.5t-37 133.5 t-57.5 82.5t-75.5 44t-90.5 17.5t-101.5 3h-207v-981z" />
<glyph unicode="E" horiz-adv-x="1149" d="M182 0v1427h858v-223h-618v-375h518v-219h-518v-387h635v-223h-875z" />
<glyph unicode="F" horiz-adv-x="1110" d="M182 0v1427h858v-223h-618v-430h541v-223h-541v-551h-240z" />
<glyph unicode="G" horiz-adv-x="1350" d="M115 727q0 205 44.5 344.5t127 225t198.5 122.5t260 37q97 0 173.5 -10t131.5 -22q63 -14 113 -31v-181q-54 6 -116 10q-53 4 -121 7.5t-140 3.5q-125 0 -207 -26.5t-130 -86.5t-67.5 -156.5t-19.5 -236.5q0 -143 20.5 -244.5t67.5 -166.5t124 -95.5t190 -30.5q49 0 89 3 t68 8q33 5 58 12v367h-260v219h498v-731q-59 -28 -129 -50q-60 -19 -141.5 -34t-176.5 -15q-155 0 -276.5 35t-205.5 122t-128.5 233t-44.5 368z" />
<glyph unicode="H" horiz-adv-x="1456" d="M182 0v1427h240v-591h612v591h240v-1427h-240v612h-612v-612h-240z" />
<glyph unicode="I" horiz-adv-x="604" d="M182 0v1427h240v-1427h-240z" />
<glyph unicode="J" horiz-adv-x="706" d="M14 10v172q23 -1 48 -2q21 -1 45 -1.5t46 -0.5q34 0 58.5 3t40.5 16t24 39.5t8 74.5v1116h241l1 -1189q0 -76 -17.5 -126.5t-52 -81t-85.5 -43t-118 -12.5q-48 0 -91 5t-76 12q-39 8 -72 18z" />
<glyph unicode="K" horiz-adv-x="1313" d="M182 0v1427h240v-583h220l333 583h277l-398 -690l421 -737h-281l-352 621h-220v-621h-240z" />
<glyph unicode="L" horiz-adv-x="1056" d="M182 0v1427h240v-1204h590v-223h-830z" />
<glyph unicode="M" horiz-adv-x="1734" d="M182 0v1427h416l264 -860h8l273 860h409v-1427h-239v1204h-6l-27 -90q-11 -38 -24 -79.5t-23 -71.5l-184 -576h-359l-188 580q-10 30 -23 70.5t-24 77.5q-13 43 -27 89h-6v-1204h-240z" />
<glyph unicode="N" horiz-adv-x="1521" d="M182 0v1427h398l520 -1204h5q-1 36 -2 73q-1 32 -1 69v71v991h237v-1427h-389l-440 1004q-18 42 -34 78t-27 63q-14 32 -25 59h-4v-1204h-238z" />
<glyph unicode="O" horiz-adv-x="1401" d="M115 709q0 225 40 370t116 228.5t185 116t246 32.5q91 0 170 -14t144 -47t115 -88.5t84.5 -138.5t52.5 -196.5t18 -262.5t-18 -262t-52.5 -195.5t-84.5 -137t-115 -86.5t-144 -45.5t-170 -13.5q-92 0 -171 13t-144 45.5t-115.5 86.5t-85.5 136.5t-53 195.5t-18 263z M367 709q0 -155 15.5 -255.5t53.5 -159t103 -81.5t163 -23t162.5 23t102.5 81.5t53.5 159t15.5 255.5q0 156 -15.5 257t-53.5 160.5t-102.5 83t-162.5 23.5t-163 -23.5t-103 -83t-53.5 -160.5t-15.5 -257z" />
<glyph unicode="P" horiz-adv-x="1215" d="M182 0v1427h566q46 0 93 -7t90 -26.5t80 -52.5t65 -84.5t43.5 -124.5t15.5 -171t-17 -170.5t-46 -123.5t-68 -83t-83 -50.5t-90.5 -25t-91.5 -6.5h-317v-502h-240zM422 725h289q54 0 87.5 18t53 50t26.5 75t7 93q0 49 -7 93t-26.5 77.5t-53 53t-87.5 19.5h-289v-479z" />
<glyph unicode="Q" horiz-adv-x="1403" d="M115 709q0 225 40 370t116 228.5t185 116t246 32.5q91 0 170 -14t144 -47t115 -88.5t84.5 -138.5t52.5 -196.5t18 -262.5q0 -121 -12 -218t-34.5 -173t-56.5 -132t-77 -96l146 -205h-218l-83 117q-55 -17 -117 -25t-132 -8q-92 0 -171 13t-144 45.5t-115.5 86.5 t-85.5 136.5t-53 195.5t-18 263zM367 709q0 -155 15.5 -255.5t53.5 -159t103 -81.5t163 -23q30 0 57 2t50 6l-162 232h215l99 -144q42 58 58.5 160t16.5 263q0 156 -15.5 257t-53.5 160.5t-102.5 83t-162.5 23.5t-163 -23.5t-103 -83t-53.5 -160.5t-15.5 -257z" />
<glyph unicode="R" horiz-adv-x="1285" d="M182 0v1427h531q57 0 111.5 -7.5t103 -26.5t88.5 -51.5t69.5 -83.5t45.5 -122t16 -167q0 -64 -10.5 -114.5t-28 -89.5t-40 -68t-45.5 -50q-55 -48 -124 -67v-2l301 -578h-274l-267 524h-237v-524h-240zM422 750h289q188 0 188 233q0 61 -13.5 103.5t-39 68.5t-61.5 37.5 t-80 11.5h-283v-454z" />
<glyph unicode="S" horiz-adv-x="1110" d="M108 1047q0 106 32 183.5t90.5 127.5t141.5 74t185 24q85 0 155.5 -9.5t121.5 -20.5q60 -13 109 -29v-185q-45 6 -95 11q-43 5 -96.5 8.5t-110.5 3.5q-89 0 -146 -6t-90 -25t-46 -54t-13 -93q0 -32 3.5 -57t16 -44t36 -33t63.5 -26l271 -78q52 -15 92.5 -31.5t70.5 -39 t51.5 -52.5t34.5 -71.5t19 -97.5t6 -129q0 -114 -19.5 -195.5t-73.5 -133t-148.5 -76t-244.5 -24.5q-116 0 -192.5 10.5t-124.5 23.5q-55 15 -87 34v176q51 -7 110 -12q51 -5 116.5 -8t138.5 -3q97 0 154 12.5t87 37t38.5 60.5t8.5 83q0 37 -3.5 67.5t-16.5 54.5t-37 41.5 t-66 28.5l-291 76q-69 18 -117 48.5t-77.5 77.5t-43 113.5t-13.5 156.5z" />
<glyph unicode="T" horiz-adv-x="1122" d="M12 1206v221h1098v-221h-432v-1206h-238v1206h-428z" />
<glyph unicode="U" horiz-adv-x="1405" d="M177 455v972h238v-954q0 -85 15 -140t49.5 -86.5t89.5 -44t135 -12.5q72 0 125.5 12.5t89.5 44t53.5 86.5t17.5 140v954h238v-968q0 -125 -28.5 -217t-91.5 -152.5t-162.5 -90.5t-241.5 -30t-242 29.5t-163.5 89.5t-92.5 151.5t-29 215.5z" />
<glyph unicode="V" horiz-adv-x="1343" d="M0 1427h274l390 -1204h16l389 1204h274l-483 -1427h-377z" />
<glyph unicode="W" horiz-adv-x="1942" d="M35 1427h254l248 -1204h4l236 1204h399l250 -1204h4l234 1204h243l-303 -1427h-375l-253 1225h-3l-237 -1225h-379z" />
<glyph unicode="X" horiz-adv-x="1265" d="M15 0l471 734l-448 693h292l306 -476l294 476h281l-438 -688l477 -739h-289l-336 518l-329 -518h-281z" />
<glyph unicode="Y" horiz-adv-x="1221" d="M0 1427h281l327 -622h4l328 622h281l-492 -876v-551h-237v551z" />
<glyph unicode="Z" d="M90 0v156l744 1046v2h-703v223h1057v-159l-742 -1043v-2h750v-223h-1106z" />
<glyph unicode="[" horiz-adv-x="680" d="M182 -330v2274h498v-226h-264v-1822h264v-226h-498z" />
<glyph unicode="\" horiz-adv-x="925" d="M30 1554h242l643 -1554h-242z" />
<glyph unicode="]" horiz-adv-x="680" d="M0 -104h262v1822h-262v226h498v-2274h-498v226z" />
<glyph unicode="^" horiz-adv-x="970" d="M20 647l295 780h340l295 -780h-260l-201 590h-12l-196 -590h-261z" />
<glyph unicode="_" horiz-adv-x="975" d="M-10 -78h995v-170h-995v170z" />
<glyph unicode="`" horiz-adv-x="653" d="M62 1478q0 17 9.5 35t28.5 41q17 22 35 38.5t32 27.5q17 13 32 22l393 -368l-100 -123q-76 46 -142 87q-28 18 -57 36t-55.5 34.5t-47.5 31t-34 24.5q-49 37 -71.5 63t-22.5 51z" />
<glyph unicode="a" horiz-adv-x="1193" d="M127 299q0 90 26.5 152t72 100t107 55t132.5 17q72 0 130.5 -8t101.5 -18q49 -11 89 -25v98q0 37 -2.5 62.5t-8.5 44.5t-16.5 32t-25.5 25q-32 23 -88 33t-146 10q-57 0 -110.5 -3.5t-95.5 -8.5q-49 -5 -93 -11v166q40 16 99 29q50 11 125 20.5t178 9.5q69 0 122.5 -5.5 t94.5 -18.5t72.5 -34t56.5 -52q21 -26 35 -55t23 -68t12.5 -89.5t3.5 -117.5v-639h-201l-18 78q-44 -31 -97 -55q-46 -20 -107.5 -37t-135.5 -17q-90 0 -154 18t-104.5 57t-59 102t-18.5 153zM370 299q0 -44 11 -70t32 -39.5t51.5 -17.5t69.5 -4q51 0 96.5 9.5t80.5 20.5 q40 13 75 30v183q-32 6 -69 11q-32 5 -72.5 8.5t-85.5 3.5q-50 0 -85.5 -4.5t-58.5 -19t-34 -41t-11 -70.5z" />
<glyph unicode="b" horiz-adv-x="1228" d="M166 0v1554h237v-544q47 20 102 37q48 14 112 26t139 12q106 0 175.5 -37.5t110.5 -109t57.5 -174t16.5 -232.5q0 -156 -25 -263t-72 -174t-116.5 -96.5t-157.5 -29.5q-76 0 -141.5 17.5t-114.5 39.5q-57 26 -104 58l-14 -84h-205zM403 238q32 -16 73 -28 q35 -11 84 -19.5t110 -8.5q60 0 98 17.5t59.5 57t30 104t8.5 159.5q0 106 -7 174.5t-29.5 108.5t-66 55.5t-116.5 15.5q-46 0 -89 -6t-78 -13q-40 -9 -77 -19v-598z" />
<glyph unicode="c" horiz-adv-x="965" d="M94 528q0 150 36.5 255t99 170.5t146.5 95.5t179 30q73 0 131 -9.5t99 -20.5q48 -13 83 -29v-164q-34 3 -74 7q-34 2 -77 4.5t-90 2.5q-75 0 -129 -13t-88 -49.5t-50 -103t-16 -174.5q0 -110 18.5 -178t56.5 -105.5t95 -50t135 -12.5q49 0 90.5 2.5t72.5 6.5q36 4 65 10 v-166q-32 -18 -78 -32q-39 -12 -98 -22t-138 -10q-97 0 -182.5 26.5t-149 90.5t-100.5 170.5t-37 267.5z" />
<glyph unicode="d" horiz-adv-x="1218" d="M106 523v23q0 137 22 236q24 107 71 174.5t114.5 98t152.5 30.5q78 0 142 -12t111 -26q55 -17 97 -37v544h238v-1554h-205l-14 84q-45 -32 -102 -58q-49 -22 -116.5 -39.5t-148.5 -17.5q-89 0 -156.5 29t-112.5 94.5t-68.5 171.5t-24.5 259zM356 508q0 -89 7 -151 t28 -101t59.5 -56.5t101.5 -17.5q52 0 99.5 7.5t84.5 17.5q43 11 80 26v603q-41 10 -87 19q-39 7 -89.5 13t-103.5 6q-55 0 -90 -18.5t-55 -61.5t-27.5 -113t-7.5 -173z" />
<glyph unicode="e" horiz-adv-x="1085" d="M94 539q0 165 43 271t114 167t162 84.5t187 23.5q121 0 200.5 -33t126.5 -92.5t66 -142.5t19 -183q0 -47 -3.5 -97t-9.5 -103h-661q1 -71 15.5 -119.5t48 -79t89 -44t138.5 -13.5q70 0 131 3.5t107 8.5q54 5 98 13v-166q-51 -19 -111 -34q-51 -13 -119 -23.5t-145 -10.5 q-118 0 -210 29.5t-155.5 97t-97 176.5t-33.5 267zM336 612h457v38q0 60 -7.5 104.5t-30.5 73.5t-65 43t-112 14q-75 0 -122.5 -17.5t-74 -52t-36 -85.5t-9.5 -118z" />
<glyph unicode="f" horiz-adv-x="775" d="M90 858v197h148v176q0 81 15.5 144t50.5 106t92.5 65.5t140.5 22.5q62 0 112.5 -6t85.5 -14q41 -9 74 -19v-176q-27 2 -58 4q-26 2 -60 3t-70 1q-44 0 -72 -6.5t-44.5 -21t-23 -37.5t-6.5 -56v-186h270v-197h-270v-858h-237v858h-148z" />
<glyph unicode="g" horiz-adv-x="1228" d="M114 532q0 128 25 229.5t73.5 172t120 108t164.5 37.5q79 0 144.5 -16t113.5 -35q55 -23 100 -51l27 78h180v-1213q0 -95 -27.5 -160.5t-83 -106t-138.5 -58t-193 -17.5q-70 0 -136 9.5t-119 21.5q-62 13 -116 31v174q36 -8 83 -13q40 -5 96.5 -8.5t125.5 -3.5 q84 0 136.5 6.5t82 23t40.5 45t11 71.5v184q-45 -19 -95 -34q-44 -13 -99.5 -23.5t-116.5 -10.5q-105 0 -180.5 28.5t-124 94.5t-71.5 173t-23 263zM364 522q0 -90 6 -154t29 -104.5t70 -59t128 -18.5q42 0 82.5 3.5t72.5 8.5q38 5 72 13v604q-39 14 -84 25q-38 10 -87 18 t-101 8q-53 0 -89 -17t-58 -57t-31.5 -106t-9.5 -164z" />
<glyph unicode="h" horiz-adv-x="1254" d="M166 0v1554h237v-550q53 20 114 37q52 14 119.5 26t139.5 12t130.5 -15.5t99 -55t62.5 -107t22 -172.5v-729h-238v700q0 42 -6 73.5t-25.5 52t-56 30.5t-96.5 10q-48 0 -94.5 -6t-84.5 -13q-45 -8 -86 -18v-829h-237z" />
<glyph unicode="i" horiz-adv-x="604" d="M163 1369q0 41 6.5 67.5t23 42.5t43 22t67.5 6t67.5 -6t42.5 -22t22 -42.5t6 -67.5t-6 -67t-22 -41t-42.5 -21t-67.5 -6t-67.5 6t-43 21t-23 41t-6.5 67zM184 0v1055h238v-1055h-238z" />
<glyph unicode="j" horiz-adv-x="630" d="M-40 -286q19 -2 43 -3q20 -2 46.5 -2.5t56.5 -0.5q23 0 42 3t33 12.5t21.5 26.5t7.5 44v1261h238v-1321q0 -71 -20 -116.5t-53.5 -71t-76.5 -35t-88 -9.5q-59 0 -105.5 7t-78.5 16q-38 11 -66 24v165zM189 1359q0 41 6 67.5t22 42.5t42.5 22t67.5 6q40 0 67 -6t43.5 -22 t23 -42.5t6.5 -67.5t-6.5 -67t-23 -41t-43.5 -21t-67 -6q-41 0 -67.5 6t-42.5 21t-22 41t-6 67z" />
<glyph unicode="k" horiz-adv-x="1147" d="M166 0v1554h237v-884h156l275 385h271l-360 -492l362 -563h-271l-305 473h-128v-473h-237z" />
<glyph unicode="l" horiz-adv-x="569" d="M166 0v1554h237v-1554h-237z" />
<glyph unicode="m" horiz-adv-x="1823" d="M166 0v1055h174l29 -78q56 30 119 54q54 20 122.5 37t141.5 17q88 0 145.5 -28t89.5 -84q25 14 65 33t90 36.5t110 30t126 12.5q146 0 213.5 -82.5t67.5 -254.5v-748h-238v702q0 48 -6 80.5t-23 53t-46.5 29.5t-77.5 9q-38 0 -73.5 -4.5t-67 -11.5t-57 -15t-43.5 -14 q3 -26 4 -55t1 -47v-727h-237v702q0 48 -6.5 80.5t-23.5 53t-45.5 29.5t-72.5 9q-50 0 -93.5 -7.5t-77.5 -15.5q-40 -10 -73 -22v-829h-237z" />
<glyph unicode="n" horiz-adv-x="1243" d="M166 0v1055h174l29 -78q55 30 120 54q56 20 129 37t156 17q156 0 230.5 -81.5t74.5 -255.5v-748h-237v719q0 41 -5.5 70.5t-23.5 48t-52 27.5t-91 9q-60 0 -109 -7.5t-84 -15.5q-41 -10 -74 -22v-829h-237z" />
<glyph unicode="o" horiz-adv-x="1188" d="M94 528q0 134 29 237.5t90.5 174.5t155.5 108t225 37t225.5 -37t155.5 -108t90 -174.5t29 -237.5t-29 -238.5t-90 -175.5t-155.5 -108t-225.5 -37t-225 37t-155.5 108t-90.5 175.5t-29 238.5zM344 528q0 -87 9.5 -153.5t37 -112t76.5 -69t127 -23.5q79 0 128 23.5t76 69 t36.5 112t9.5 153.5q0 86 -9.5 152.5t-36.5 112t-76 69t-128 23.5q-78 0 -127 -23.5t-76.5 -69t-37 -112t-9.5 -152.5z" />
<glyph unicode="p" horiz-adv-x="1218" d="M166 -485v1540h174l29 -78q55 30 120 54q56 20 128.5 37t156.5 17t146 -31.5t103.5 -99t62 -173t20.5 -253.5q0 -157 -24.5 -264t-73 -172.5t-119.5 -94t-164 -28.5q-67 0 -125.5 11t-102.5 25q-51 16 -94 36v-526h-237zM403 211q29 -9 65 -15q31 -5 73.5 -9.5t95.5 -4.5 q65 0 107.5 12.5t67 50.5t34.5 107.5t10 182.5q0 93 -7.5 157.5t-28 105t-57 58.5t-93.5 18q-52 0 -100 -7.5t-85 -15.5q-44 -10 -82 -22v-618z" />
<glyph unicode="q" horiz-adv-x="1220" d="M114 528q0 144 23 249.5t69.5 173.5t116.5 101t163 33q77 0 143.5 -17t116.5 -37q58 -24 107 -54l27 78h174v-1540h-238v526q-43 -20 -94 -36q-44 -14 -101.5 -25t-123.5 -11q-94 0 -165.5 28.5t-120 94t-73 172.5t-24.5 264zM364 535q0 -113 9.5 -182.5t34.5 -107.5 t67.5 -50.5t107.5 -12.5q52 0 95 4.5t74 9.5q36 6 64 15v618q-36 12 -76 22q-35 8 -80.5 15.5t-95.5 7.5q-62 0 -100.5 -16t-61 -55t-30.5 -104.5t-8 -163.5z" />
<glyph unicode="r" horiz-adv-x="816" d="M166 0v1055h205l14 -115q78 51 175 84t218 39l-2 -246q-125 -2 -216.5 -12.5t-156.5 -36.5v-768h-237z" />
<glyph unicode="s" horiz-adv-x="1035" d="M116 37v166q44 -10 98 -18q46 -7 108.5 -12t137.5 -5q82 0 130 6t72.5 20.5t31.5 39.5t7 63q0 20 -2.5 36.5t-12 30t-28 23t-49.5 14.5l-221 41q-76 13 -128 35t-83.5 58.5t-45 90t-13.5 130.5q0 166 110.5 247.5t315.5 81.5q72 0 132.5 -8.5t105.5 -19.5q52 -12 95 -27 v-170q-48 8 -100 14q-45 5 -100.5 10t-112.5 5q-65 0 -108 -5.5t-68 -18.5t-35 -33.5t-10 -51.5q0 -24 4 -43t17 -34t36 -26t62 -18l229 -43q67 -13 113.5 -34t75.5 -57t42 -91.5t13 -136.5q0 -77 -15.5 -138t-62.5 -103t-133 -64.5t-227 -22.5q-78 0 -147 10.5t-121 23.5 q-61 15 -113 34z" />
<glyph unicode="t" horiz-adv-x="864" d="M84 858v197h156v223l237 53v-276h266v-197h-266v-567q0 -37 5.5 -61t20 -38.5t41 -20t68.5 -5.5q39 0 70.5 1.5t53.5 3.5q26 2 46 5v-158q-35 -14 -75 -25q-35 -9 -82 -16.5t-103 -7.5q-78 0 -131.5 15t-87 45.5t-48.5 77t-15 108.5v643h-156z" />
<glyph unicode="u" horiz-adv-x="1245" d="M166 309v746h237v-719q0 -42 5.5 -71t23.5 -47.5t52 -27t91 -8.5q60 0 109 6.5t84 14.5q41 10 74 22v830h237v-1055h-174l-28 78q-56 -31 -121 -55q-56 -20 -129.5 -37t-155.5 -17q-155 0 -230 82.5t-75 257.5z" />
<glyph unicode="v" horiz-adv-x="1052" d="M6 1055h258l260 -834h4l260 834h258l-364 -1055h-311z" />
<glyph unicode="w" horiz-adv-x="1554" d="M12 1055h238l196 -844h17l166 844h325l166 -844h14l201 844h207l-266 -1055h-312l-176 829h-16l-158 -829h-327z" />
<glyph unicode="x" horiz-adv-x="1052" d="M4 0l389 537l-357 518h283l227 -329l224 329h258l-355 -513l375 -542h-283l-245 354l-258 -354h-258z" />
<glyph unicode="y" horiz-adv-x="1089" d="M12 1055h264l271 -846h8l272 846h262l-452 -1274q-28 -78 -57.5 -131.5t-64 -86.5t-75 -48t-88.5 -15q-55 0 -96.5 5t-70.5 12q-33 8 -58 18v164q14 -2 32 -3q31 -3 93 -3q34 0 59.5 7t44 23t33 40t27.5 59l65 178h-102z" />
<glyph unicode="z" horiz-adv-x="1092" d="M117 0v158l534 692v2h-514v203h842v-150l-537 -694v-2h549v-209h-874z" />
<glyph unicode="{" horiz-adv-x="772" d="M82 700v211q44 9 76.5 22t54.5 39.5t32.5 72t10.5 120.5v434q0 77 13 134.5t42 96t77 58t118 19.5q60 0 106 -4t78 -9q38 -5 66 -12v-170q-92 0 -146 -5.5t-82 -24.5t-35.5 -55.5t-7.5 -98.5v-498q0 -62 -23 -103.5t-52 -67.5t-57 -38.5t-38 -15.5q9 -2 37 -14 t57.5 -37.5t52.5 -67.5t23 -104v-498q0 -63 7.5 -99.5t35.5 -55.5t82 -24t146 -5v-170q-28 -8 -66 -14q-32 -5 -78 -9t-106 -4q-70 0 -118 19.5t-77 58t-42 96.5t-13 135v432q0 75 -10.5 121t-32.5 73t-54.5 40t-76.5 22z" />
<glyph unicode="|" horiz-adv-x="684" d="M227 -487v2076h229v-2076h-229z" />
<glyph unicode="}" horiz-adv-x="772" d="M16 -100q92 0 146 5t81.5 24t35 55.5t7.5 99.5v498q0 62 23 104t53 67.5t57.5 37.5t36.5 14q-10 3 -37.5 15.5t-57 38.5t-52.5 67.5t-23 103.5v498q0 62 -7.5 98.5t-35 55.5t-81.5 24.5t-146 5.5v170q28 7 66 12q32 5 78 9t106 4q70 0 117.5 -19.5t77 -58t42.5 -96 t13 -134.5v-434q0 -75 10.5 -120.5t32.5 -72t54.5 -39.5t76.5 -22v-211q-44 -9 -76.5 -22t-54.5 -40t-32.5 -73t-10.5 -121v-432q0 -77 -13 -135t-42.5 -96.5t-77 -58t-117.5 -19.5q-60 0 -106 4t-78 9q-38 6 -66 14v170z" />
<glyph unicode="~" horiz-adv-x="1382" d="M60 403q3 74 26 136.5t64 109t100 74t134 31.5q47 3 101.5 -11.5t111.5 -38t114 -51.5t109 -52t97.5 -39t78.5 -13q33 1 58.5 11t47 29.5t40.5 48.5t39 69l141 -41q-3 -74 -25.5 -135.5t-64 -106.5t-100.5 -71.5t-134 -30.5q-61 -4 -118 9.5t-110.5 36.5t-104 51 t-98 51.5t-93 38t-88.5 11.5q-66 -3 -111 -41t-73 -117z" />
<glyph unicode="&#xa1;" horiz-adv-x="584" d="M139 1285q0 46 7 75.5t24 47t47 24t76 6.5q45 0 74.5 -6.5t47 -24t24 -47t6.5 -75.5q0 -47 -6.5 -76.5t-24 -46.5t-47 -23t-74.5 -6q-46 0 -76 6t-47 23t-24 46.5t-7 76.5zM172 -3v991h240v-991h-240z" />
<glyph unicode="&#xa2;" horiz-adv-x="965" d="M94 528q0 129 27 224t74.5 161t112.5 104t142 52v201h236v-200q43 -7 77 -15t57 -16q27 -9 48 -19v-164q-34 3 -74 7q-34 2 -77 4.5t-90 2.5q-75 0 -129 -13t-88 -49.5t-50 -103t-16 -174.5q0 -110 18.5 -178t56.5 -105.5t95 -50t135 -12.5q49 0 90.5 2.5t72.5 6.5 q36 4 65 10v-166q-20 -10 -48 -21q-24 -9 -59.5 -18.5t-83.5 -16.5v-186h-236v187q-77 13 -142 49t-112.5 101t-74.5 162t-27 234z" />
<glyph unicode="&#xa3;" horiz-adv-x="1189" d="M100 623v200h170v195q0 66 6 123t24 104.5t50 84.5t84.5 62.5t127.5 38.5t179 13q85 0 153 -9t118 -20q58 -13 104 -29v-176q-41 5 -94 9q-45 4 -109 7t-143 3q-87 0 -139 -6.5t-79.5 -28.5t-35.5 -62.5t-8 -107.5v-201h438v-200h-438v-76q0 -45 -2.5 -93t-12 -91.5 t-28.5 -79t-51 -54.5v-10h702v-219h-987v193q37 18 63.5 42t43.5 57t25.5 76t8.5 99v156h-170z" />
<glyph unicode="&#xa4;" horiz-adv-x="1331" d="M45 63l194 194q-43 104 -43 253q0 72 10.5 134.5t32.5 114.5l-194 193l176 176l187 -186q51 25 114 38t141 13q155 0 259 -52l188 187l176 -176l-195 -194q43 -102 43 -248q0 -149 -43 -253l195 -194l-176 -176l-187 186q-104 -53 -260 -53q-154 0 -257 53l-185 -186z M442 510q0 -69 8.5 -122.5t33 -90t67.5 -55.5t112 -19t112.5 19t67.5 55.5t32.5 90t8.5 122.5q0 67 -8.5 120t-32.5 89t-67.5 55t-112.5 19t-112 -19t-67.5 -55t-33 -89t-8.5 -120z" />
<glyph unicode="&#xa5;" horiz-adv-x="1194" d="M10 1427h266l320 -598h4l318 598h266l-430 -770h266v-168h-299v-139h299v-168h-299v-182h-240v182h-307v168h307v139h-307v168h272z" />
<glyph unicode="&#xa6;" horiz-adv-x="684" d="M227 348h229v-835h-229v835zM227 594v833h229v-833h-229z" />
<glyph unicode="&#xa7;" horiz-adv-x="1055" d="M96 371q0 78 19.5 145.5t43.5 118.5q28 59 64 108q-56 39 -79 101.5t-23 163.5q0 83 27.5 144.5t79 102t126 60.5t168.5 20q72 0 137 -8.5t115 -18.5q58 -11 107 -26v-172q-55 7 -112 12q-49 5 -108.5 9t-115.5 4q-59 0 -97 -6.5t-61 -21t-32 -37t-9 -54.5q0 -18 4 -33.5 t17 -28.5t36 -23.5t62 -17.5l291 -53q65 -12 109 -34.5t70.5 -55.5t38 -77.5t11.5 -100.5q0 -81 -21 -150.5t-46 -120.5q-29 -60 -66 -110q60 -35 84 -99.5t24 -170.5q0 -72 -23 -132.5t-78.5 -104t-149 -67.5t-234.5 -24q-78 0 -142 10.5t-110 24.5q-54 15 -96 35v170 q35 -11 83 -19q40 -7 97.5 -12.5t130.5 -5.5q82 0 137.5 8.5t89 24.5t48 39.5t14.5 52.5q0 21 -2.5 37.5t-11.5 29.5t-27 22.5t-49 14.5l-305 53q-68 12 -113 38.5t-72.5 63t-39 80.5t-11.5 91zM324 440q0 -21 4 -42.5t16 -40t35 -32.5t61 -20l232 -37q22 41 40 85 q15 38 27.5 84t12.5 91q0 22 -2 42t-13 36t-36 28t-70 19l-236 37q-20 -43 -36 -87q-14 -38 -24.5 -81.5t-10.5 -81.5z" />
<glyph unicode="&#xa8;" horiz-adv-x="868" d="M63 1218q0 42 5.5 69t21.5 42t42.5 20.5t67.5 5.5t68 -5.5t42.5 -20.5t21.5 -42t6 -69q0 -41 -6 -67.5t-21.5 -42.5t-42.5 -22t-68 -6t-67.5 6t-42.5 22t-21.5 42.5t-5.5 67.5zM486 1218q0 42 5.5 69t21.5 42t42.5 20.5t67.5 5.5t68 -5.5t42.5 -20.5t21.5 -42t6 -69 q0 -41 -6 -67.5t-21.5 -42.5t-42.5 -22t-68 -6t-67.5 6t-42.5 22t-21.5 42.5t-5.5 67.5z" />
<glyph unicode="&#xa9;" horiz-adv-x="1450" d="M35 901q0 144 54 269.5t148 219t219.5 147.5t268.5 54t268.5 -54t219.5 -147.5t148 -219t54 -269.5q0 -143 -54 -268.5t-148 -219.5t-219.5 -148t-268.5 -54t-268.5 54t-219.5 148t-148 219.5t-54 268.5zM217 901q0 -104 40 -196.5t109 -161.5t161.5 -109.5t197.5 -40.5 t198 40.5t162.5 109.5t109.5 161.5t40 196.5q0 105 -40 198t-109.5 162.5t-162.5 109.5t-198 40t-197.5 -40t-161.5 -109.5t-109 -162.5t-40 -198zM418 901q0 108 24 180t66.5 115t100.5 60.5t126 17.5q54 0 94 -7.5t66 -15.5q31 -10 53 -22v-131q-16 5 -42 9q-22 3 -54.5 6 t-77.5 3q-48 0 -81.5 -10t-54.5 -34.5t-30.5 -65t-9.5 -101.5q0 -62 9.5 -104t30.5 -67t54.5 -35.5t81.5 -10.5q45 0 79 2.5t57 6.5q27 4 46 10v-132q-24 -13 -57 -23q-28 -8 -69 -15t-95 -7q-68 0 -126 18t-100.5 61t-66.5 114.5t-24 177.5z" />
<glyph unicode="&#xaa;" horiz-adv-x="804" d="M95 860q0 120 57.5 173.5t171.5 53.5q45 0 85.5 -6t71.5 -13q36 -9 66 -19v86q0 32 -8.5 54t-24.5 36q-23 20 -62.5 24t-94.5 4q-41 0 -81 -2.5t-72 -5.5q-38 -4 -73 -8v121q37 12 82 22q38 8 88 15.5t107 7.5q93 0 161 -16t105 -62q15 -19 26 -43t18 -57.5t10 -79.5 t3 -109v-377h-145l-16 66q-28 -25 -64 -43q-32 -17 -76.5 -30t-101.5 -13q-107 0 -170 54t-63 167zM279 868q0 -21 4 -36.5t14.5 -25t28 -14t45.5 -4.5q35 0 67 4.5t56 9.5q28 6 53 15v117q-23 3 -49 6q-23 2 -51 4t-58 2q-34 0 -55.5 -4t-33.5 -13t-16.5 -24t-4.5 -37z" />
<glyph unicode="&#xab;" horiz-adv-x="1197" d="M78 401v287l457 316v-273l-273 -174v-25l273 -174v-272zM655 401v287l457 316v-273l-273 -174v-25l273 -174v-272z" />
<glyph unicode="&#xac;" horiz-adv-x="1146" d="M40 653v213h1041v-551h-238v338h-803z" />
<glyph unicode="&#xad;" horiz-adv-x="794" d="M60 475v227h674v-227h-674z" />
<glyph unicode="&#xae;" horiz-adv-x="1450" d="M35 897q0 143 54 268.5t148 219.5t219.5 148t268.5 54t268.5 -54t219.5 -148t148 -219.5t54 -268.5t-54 -268.5t-148 -219.5t-219.5 -148t-268.5 -54t-268.5 54t-219.5 148t-148 219.5t-54 268.5zM217 897q0 -105 40 -197.5t109 -161.5t161.5 -109t197.5 -40t198 40 t162.5 109t109.5 161.5t40 197.5t-40 198t-109.5 162.5t-162.5 109.5t-198 40t-197.5 -40t-161.5 -109.5t-109 -162.5t-40 -198zM465 545v715h334q36 0 75 -7t71.5 -31.5t53.5 -72.5t21 -129q0 -70 -18.5 -110.5t-41.5 -61.5q-26 -25 -59 -33l152 -270h-193l-135 239h-90 v-239h-170zM635 907h129q24 0 40.5 5t27 17.5t15.5 33.5t5 53q0 63 -21 85.5t-73 22.5h-123v-217z" />
<glyph unicode="&#xaf;" horiz-adv-x="827" d="M61 1219v196h705v-196h-705z" />
<glyph unicode="&#xb0;" horiz-adv-x="1026" d="M212 1185q0 100 22.5 166.5t63 106t97 55.5t123.5 16q66 0 120 -16t93 -55.5t60.5 -106t21.5 -166.5q0 -93 -21.5 -156.5t-60.5 -103t-93 -56.5t-120 -17q-67 0 -123.5 17t-97 56.5t-63 103t-22.5 156.5zM387 1185q0 -50 9.5 -81.5t26.5 -50.5t41.5 -26t53.5 -7 q27 0 49.5 7t38 26t24.5 50.5t9 81.5q0 52 -9 86.5t-24.5 55t-38 28.5t-49.5 8q-29 0 -53.5 -8t-41.5 -28.5t-26.5 -55t-9.5 -86.5z" />
<glyph unicode="&#xb1;" horiz-adv-x="1025" d="M55 0v193h915v-193h-915zM55 614v203h348v377h221v-377h346v-201h-344v-346h-221v344h-350z" />
<glyph unicode="&#xb2;" horiz-adv-x="711" d="M65 672v119q98 87 171.5 157.5t122 129t73 106.5t24.5 90q0 133 -170 133q-35 0 -69.5 -2.5t-62.5 -4.5q-33 -4 -62 -7v131q30 11 70 21q35 8 84.5 15t115.5 7q64 0 117 -16.5t90 -49t57.5 -80.5t20.5 -112q0 -72 -27.5 -137.5t-71 -124t-98 -110.5t-108.5 -95v-2h309 v-168h-586z" />
<glyph unicode="&#xb3;" horiz-adv-x="676" d="M66 696v133q31 -3 64 -5q28 -2 61.5 -3.5t63.5 -1.5q58 0 94.5 7t57.5 21t28.5 36t7.5 51q0 32 -10.5 53t-37 34t-71 19t-112.5 9v141q63 1 104.5 7.5t66.5 20.5t35.5 35t10.5 50q0 60 -39 85t-117 25q-38 0 -74.5 -2.5t-65.5 -4.5q-34 -4 -65 -7v125q33 11 72 21 q33 8 76.5 15t93.5 7q66 0 120.5 -12t94 -41t61 -77t21.5 -120q0 -45 -10 -77.5t-25.5 -54.5t-34.5 -35t-37 -17v-5q21 -8 44 -20t42.5 -34.5t32 -58.5t12.5 -91q0 -76 -22 -127t-62.5 -81.5t-98 -43.5t-128.5 -13q-54 0 -100 5.5t-81 12.5q-40 8 -73 19z" />
<glyph unicode="&#xb4;" horiz-adv-x="672" d="M61 1278l408 383q13 -7 29 -19q14 -11 31.5 -28t39.5 -43q19 -23 29 -42t10 -36q0 -25 -22.5 -50.5t-73.5 -62.5q-14 -10 -36 -25t-49 -33t-57 -37.5t-59 -38.5q-69 -45 -147 -95z" />
<glyph unicode="&#xb6;" horiz-adv-x="1368" d="M210 1026q0 94 22 173t82 136.5t165 90t271 32.5q58 0 128 -5t133 -11q72 -7 146 -15v-1427h-210v1253h-177v-1253h-210v616q-85 0 -150.5 20t-109.5 67.5t-67 126t-23 196.5z" />
<glyph unicode="&#xb7;" horiz-adv-x="510" d="M103 692q0 47 6.5 76.5t24 46.5t47 23t74.5 6q46 0 76 -6t47 -23t24 -46.5t7 -76.5q0 -46 -7 -75.5t-24 -47t-47 -24t-76 -6.5q-45 0 -74.5 6.5t-47 24t-24 47t-6.5 75.5z" />
<glyph unicode="&#xb8;" horiz-adv-x="612" d="M61 -446l35 133q16 -4 39 -8q19 -3 46.5 -5t62.5 -2q51 0 77.5 12t34.5 50q9 71 -100 71q-17 0 -35.5 -1.5t-35.5 -3.5q-19 -3 -38 -5l54 205h205l-27 -92q36 3 67 -5.5t54 -27.5t36.5 -49t13.5 -70q0 -11 -1.5 -23t-3.5 -26q-11 -53 -31.5 -89.5t-54.5 -59.5t-83 -33 t-116 -10q-37 0 -72.5 5.5t-63.5 13.5q-33 9 -63 20z" />
<glyph unicode="&#xb9;" horiz-adv-x="574" d="M65 1386l41 168h340v-882h-187v714h-194z" />
<glyph unicode="&#xba;" horiz-adv-x="835" d="M60 1040q0 110 23.5 183.5t69.5 118t113 63t153 18.5t152.5 -18.5t111.5 -63t68.5 -118t23.5 -183.5t-23.5 -183t-68.5 -117t-111.5 -62.5t-152.5 -18.5t-153 18.5t-113 62.5t-69.5 117t-23.5 183zM249 1042q0 -65 9.5 -109t29.5 -70t52.5 -37t78.5 -11t78.5 11t52.5 37 t29.5 70t9.5 109q0 64 -9.5 108t-29.5 70.5t-52.5 38t-78.5 11.5t-78.5 -11.5t-52.5 -38t-29.5 -70.5t-9.5 -108z" />
<glyph unicode="&#xbb;" horiz-adv-x="1197" d="M85 86l457 315v287l-457 316v-273l273 -174v-25l-273 -174v-272zM663 86l457 315v287l-457 316v-273l273 -174v-25l-273 -174v-272z" />
<glyph unicode="&#xbc;" horiz-adv-x="1499" d="M0 1386l41 168h340v-882h-187v714h-194zM241 0l705 1554h186l-704 -1554h-187zM787 156v123l295 604h293v-571h114v-156h-114v-156h-187v156h-401zM988 312h200v429h-6z" />
<glyph unicode="&#xbd;" horiz-adv-x="1559" d="M-8 1386l41 168h340v-882h-187v714h-194zM256 0l705 1554h186l-705 -1554h-186zM962 0v119q99 87 172.5 157.5t122 129t73 107t24.5 89.5q0 133 -170 133q-35 0 -69.5 -2.5t-62.5 -4.5q-33 -4 -63 -7v131q30 11 70 21q35 8 84.5 15t115.5 7q64 0 117 -16.5t90 -49 t57.5 -80.5t20.5 -112q0 -72 -27.5 -137.5t-71 -124t-98 -110t-108.5 -95.5v-2h309v-168h-586z" />
<glyph unicode="&#xbe;" horiz-adv-x="1632" d="M40 696v133q31 -3 64 -5q28 -2 61.5 -3.5t63.5 -1.5q58 0 94.5 7t57.5 21t28.5 36t7.5 51q0 32 -10.5 53t-37 34t-71 19t-112.5 9v141q63 1 104.5 7.5t66.5 20.5t35.5 35t10.5 50q0 60 -39 85t-117 25q-38 0 -74.5 -2.5t-65.5 -4.5q-34 -4 -65 -7v125q33 11 72 21 q33 8 76.5 15t93.5 7q66 0 120.5 -12t94 -41t61 -77t21.5 -120q0 -45 -10 -77.5t-25.5 -54.5t-34.5 -35t-37 -17v-5q21 -8 44 -20t42.5 -34.5t32 -58.5t12.5 -91q0 -76 -22 -127t-62.5 -81.5t-98 -43.5t-128.5 -13q-54 0 -100 5.5t-81 12.5q-40 8 -73 19zM398 0l704 1554 h187l-705 -1554h-186zM920 156v123l295 604h293v-571h114v-156h-114v-156h-187v156h-401zM1121 312h200v429h-6z" />
<glyph unicode="&#xbf;" horiz-adv-x="1031" d="M117 47v181q47 -9 95 -15q42 -5 90 -9.5t93 -4.5q72 0 126 9t91 33.5t55.5 67.5t18.5 111q0 70 -21 115t-63 72.5t-106 40.5t-150 20v346h238v-178q64 -13 126 -39t111 -73.5t79 -122t30 -185.5q0 -129 -36 -212.5t-96 -131.5t-137 -67t-159 -19q-86 0 -157 9.5t-122 21 t-79 21t-27 9.5zM313 1297q0 46 6.5 75.5t24 47t47 24t74.5 6.5q46 0 76 -6.5t47 -24t24 -47t7 -75.5q0 -47 -7 -76.5t-24 -46.5t-47 -23t-76 -6q-45 0 -74.5 6t-47 23t-24 46.5t-6.5 76.5z" />
<glyph unicode="&#xc0;" d="M14 0l463 1427h318l467 -1427h-265l-120 387h-486l-115 -387h-262zM304 1818q0 19 10 39t30 44t36.5 40t29.5 26q15 11 27 18l423 -353l-88 -116q-82 40 -158 79q-32 16 -66.5 34t-66.5 35.5t-60.5 34t-49.5 30.5q-67 45 -67 89zM455 602h356l-176 604h-4z" />
<glyph unicode="&#xc1;" d="M14 0l463 1427h318l467 -1427h-265l-120 387h-486l-115 -387h-262zM411 1634l424 352q12 -6 27 -17q13 -10 29.5 -26t36.5 -41q20 -24 30 -44t10 -39q0 -44 -67 -89q-21 -14 -49.5 -30.5t-61 -34t-66.5 -35.5t-66 -34q-76 -39 -158 -79zM455 602h356l-176 604h-4z" />
<glyph unicode="&#xc2;" d="M14 0l463 1427h318l467 -1427h-265l-120 387h-486l-115 -387h-262zM307 1535l101 252q17 42 38.5 68.5t49 41t62.5 20t79 5.5t79 -5.5t62.5 -20t49.5 -41t39 -68.5l100 -252l-117 -57l-213 309l-213 -309zM455 602h356l-176 604h-4z" />
<glyph unicode="&#xc3;" d="M14 0l463 1427h318l467 -1427h-265l-120 387h-486l-115 -387h-262zM229 1620q4 33 21.5 70t48.5 68.5t74 53t98 23.5q37 1 69 -7.5t61 -21t55.5 -28t51.5 -28t50 -21t51 -7.5q32 2 55.5 16t39.5 31q18 19 32 45l109 -69q-4 -33 -22.5 -70t-49 -68.5t-73.5 -53t-97 -23.5 t-101 16t-88.5 39.5t-78.5 39.5t-70 17q-33 -2 -57 -16.5t-40 -31.5q-18 -20 -30 -44zM455 602h356l-176 604h-4z" />
<glyph unicode="&#xc4;" d="M14 0l463 1427h318l467 -1427h-265l-120 387h-486l-115 -387h-262zM260 1691q0 47 6.5 76.5t24 46.5t47 23t74.5 6q46 0 76 -6t47 -23t24 -46.5t7 -76.5q0 -46 -7 -75.5t-24 -47t-47 -24t-76 -6.5q-45 0 -74.5 6.5t-47 24t-24 47t-6.5 75.5zM455 602h356l-176 604h-4z M725 1691q0 47 6.5 76.5t24 46.5t47 23t74.5 6q46 0 76 -6t47 -23t24 -46.5t7 -76.5q0 -46 -7 -75.5t-24 -47t-47 -24t-76 -6.5q-45 0 -74.5 6.5t-47 24t-24 47t-6.5 75.5z" />
<glyph unicode="&#xc5;" d="M14 0l463 1427h318l467 -1427h-265l-120 387h-486l-115 -387h-262zM385 1718q0 75 19.5 122.5t53.5 74.5t80 37t99 10t99 -10t80 -37t53.5 -74.5t19.5 -122.5q0 -74 -18.5 -121t-52 -74t-80 -37t-101.5 -10q-54 0 -100.5 10t-80 37t-52.5 74t-19 121zM455 602h356 l-176 604h-4zM547 1718q0 -32 4.5 -53.5t15 -34.5t28 -18t42.5 -5q26 0 44 5t29 18t15.5 34.5t4.5 53.5q0 33 -4.5 54.5t-15.5 34t-29 17.5t-44 5q-25 0 -42.5 -5t-28 -17.5t-15 -34t-4.5 -54.5z" />
<glyph unicode="&#xc6;" horiz-adv-x="1713" d="M10 0l463 1427h1094v-223h-705l123 -375h598v-219h-526l127 -387h459v-223h-650l-120 387h-486l-115 -387h-262zM451 602h356l-172 602h-6z" />
<glyph unicode="&#xc7;" horiz-adv-x="1179" d="M115 725q0 148 25 259.5t67 192.5t98 133.5t118 83.5t126 43.5t123 12.5q100 0 174 -10t124 -22q58 -14 99 -32v-172q-41 3 -88 6q-40 2 -91.5 4.5t-107.5 2.5q-51 0 -101.5 -4t-97 -20.5t-86.5 -48.5t-69.5 -87.5t-46 -138.5t-16.5 -201q0 -124 17 -212t47 -147t70 -93 t87 -51.5t98 -22t102 -4.5q66 0 120 2t92 4q45 3 81 6v-172q-44 -18 -104 -31q-52 -12 -127.5 -21.5t-175.5 -9.5q-69 0 -137.5 13t-130 45t-114.5 86.5t-92 138t-61 198.5t-22 269zM441 -446l35 133q16 -4 39 -8q19 -3 46.5 -5t62.5 -2q51 0 77.5 12t34.5 50q9 71 -100 71 q-17 0 -35.5 -1.5t-35.5 -3.5q-19 -3 -38 -5l54 205h205l-27 -92q36 3 67 -5.5t54 -27.5t36.5 -49t13.5 -70q0 -11 -1.5 -23t-3.5 -26q-11 -53 -31.5 -89.5t-54.5 -59.5t-83 -33t-116 -10q-37 0 -72.5 5.5t-63.5 13.5q-33 9 -63 20z" />
<glyph unicode="&#xc8;" horiz-adv-x="1149" d="M182 0v1427h858v-223h-618v-375h518v-219h-518v-387h635v-223h-875zM306 1818q0 19 10 39t30 44t36.5 40t29.5 26q15 11 27 18l423 -353l-88 -116q-82 40 -158 79q-32 16 -66.5 34t-66.5 35.5t-60.5 34t-49.5 30.5q-67 45 -67 89z" />
<glyph unicode="&#xc9;" horiz-adv-x="1149" d="M182 0v1427h858v-223h-618v-375h518v-219h-518v-387h635v-223h-875zM391 1613l424 352q12 -6 27 -17q13 -10 29.5 -26t36.5 -41q20 -24 30 -44t10 -39q0 -44 -67 -89q-21 -14 -49.5 -30.5t-61 -34t-66.5 -35.5t-66 -34q-76 -39 -158 -79z" />
<glyph unicode="&#xca;" horiz-adv-x="1149" d="M182 0v1427h858v-223h-618v-375h518v-219h-518v-387h635v-223h-875zM294 1575l101 252q17 42 38.5 68.5t49 41t62.5 20t79 5.5t79 -5.5t62.5 -20t49.5 -41t39 -68.5l100 -252l-117 -57l-213 309l-213 -309z" />
<glyph unicode="&#xcb;" horiz-adv-x="1149" d="M182 0v1427h858v-223h-618v-375h518v-219h-518v-387h635v-223h-875zM237 1691q0 47 6.5 76.5t24 46.5t47 23t74.5 6q46 0 76 -6t47 -23t24 -46.5t7 -76.5q0 -46 -7 -75.5t-24 -47t-47 -24t-76 -6.5q-45 0 -74.5 6.5t-47 24t-24 47t-6.5 75.5zM702 1691q0 47 6.5 76.5 t24 46.5t47 23t74.5 6q46 0 76 -6t47 -23t24 -46.5t7 -76.5q0 -46 -7 -75.5t-24 -47t-47 -24t-76 -6.5q-45 0 -74.5 6.5t-47 24t-24 47t-6.5 75.5z" />
<glyph unicode="&#xcc;" horiz-adv-x="612" d="M-13 1799q0 19 10 39t30 44t36.5 40t29.5 26q15 11 27 18l423 -353l-88 -116q-82 40 -158 79q-32 16 -66.5 34t-66.5 35.5t-60.5 34t-49.5 30.5q-67 45 -67 89zM192 0v1427h240v-1427h-240z" />
<glyph unicode="&#xcd;" horiz-adv-x="613" d="M70 1634l424 352q12 -6 27 -17q13 -10 29.5 -26t36.5 -41q20 -24 30 -44t10 -39q0 -44 -67 -89q-21 -14 -49.5 -30.5t-61 -34t-66.5 -35.5t-66 -34q-76 -39 -158 -79zM197 0v1427h240v-1427h-240z" />
<glyph unicode="&#xce;" horiz-adv-x="610" d="M-24 1556l101 252q17 42 38.5 68.5t49 41t62.5 20t79 5.5t79 -5.5t62.5 -20t49.5 -41t39 -68.5l100 -252l-117 -57l-213 309l-213 -309zM184 0v1427h240v-1427h-240z" />
<glyph unicode="&#xcf;" horiz-adv-x="611" d="M-79 1691q0 47 6.5 76.5t24 46.5t47 23t74.5 6q46 0 76 -6t47 -23t24 -46.5t7 -76.5q0 -46 -7 -75.5t-24 -47t-47 -24t-76 -6.5q-45 0 -74.5 6.5t-47 24t-24 47t-6.5 75.5zM182 0v1427h240v-1427h-240zM385 1691q0 47 6.5 76.5t24 46.5t47 23t74.5 6q46 0 76 -6t47 -23 t24 -46.5t7 -76.5q0 -46 -7 -75.5t-24 -47t-47 -24t-76 -6.5q-45 0 -74.5 6.5t-47 24t-24 47t-6.5 75.5z" />
<glyph unicode="&#xd0;" horiz-adv-x="1419" d="M60 605v218h171v604h512q79 0 151.5 -11t134.5 -39t113 -78t87 -128t55.5 -188t19.5 -258q0 -153 -18 -266.5t-52 -194t-83 -132t-111.5 -81t-137 -40.5t-159.5 -11h-512v605h-171zM471 223h207q51 0 99 2.5t89.5 17.5t76 45.5t59 86.5t38 141.5t13.5 210.5 q0 116 -13 196.5t-37 133.5t-57.5 82.5t-75.5 44t-90.5 17.5t-101.5 3h-207v-381h324v-218h-324v-382z" />
<glyph unicode="&#xd1;" horiz-adv-x="1521" d="M182 0v1427h398l520 -1204h5q-1 36 -2 73q-1 32 -1 69v71v991h237v-1427h-389l-440 1004q-18 42 -34 78t-27 63q-14 32 -25 59h-4v-1204h-238zM372 1651q4 33 21.5 70t48.5 68.5t74 53t98 23.5q37 1 69 -7.5t61 -21t55.5 -28t51.5 -28t50 -21t51 -7.5q32 2 55.5 16 t39.5 31q18 19 32 45l109 -69q-4 -33 -22.5 -70t-49 -68.5t-73.5 -53t-97 -23.5t-101 16t-88.5 39.5t-78.5 39.5t-70 17q-33 -2 -57 -16.5t-40 -31.5q-18 -20 -30 -44z" />
<glyph unicode="&#xd2;" horiz-adv-x="1401" d="M115 709q0 225 40 370t116 228.5t185 116t246 32.5q91 0 170 -14t144 -47t115 -88.5t84.5 -138.5t52.5 -196.5t18 -262.5t-18 -262t-52.5 -195.5t-84.5 -137t-115 -86.5t-144 -45.5t-170 -13.5q-92 0 -171 13t-144 45.5t-115.5 86.5t-85.5 136.5t-53 195.5t-18 263z M367 709q0 -155 15.5 -255.5t53.5 -159t103 -81.5t163 -23t162.5 23t102.5 81.5t53.5 159t15.5 255.5q0 156 -15.5 257t-53.5 160.5t-102.5 83t-162.5 23.5t-163 -23.5t-103 -83t-53.5 -160.5t-15.5 -257zM431 1818q0 19 10 39t30 44t36.5 40t29.5 26q15 11 27 18l423 -353 l-88 -116q-82 40 -158 79q-32 16 -66.5 34t-66.5 35.5t-60.5 34t-49.5 30.5q-67 45 -67 89z" />
<glyph unicode="&#xd3;" horiz-adv-x="1401" d="M115 709q0 225 40 370t116 228.5t185 116t246 32.5q91 0 170 -14t144 -47t115 -88.5t84.5 -138.5t52.5 -196.5t18 -262.5t-18 -262t-52.5 -195.5t-84.5 -137t-115 -86.5t-144 -45.5t-170 -13.5q-92 0 -171 13t-144 45.5t-115.5 86.5t-85.5 136.5t-53 195.5t-18 263z M367 709q0 -155 15.5 -255.5t53.5 -159t103 -81.5t163 -23t162.5 23t102.5 81.5t53.5 159t15.5 255.5q0 156 -15.5 257t-53.5 160.5t-102.5 83t-162.5 23.5t-163 -23.5t-103 -83t-53.5 -160.5t-15.5 -257zM417 1653l424 352q12 -6 27 -17q13 -10 29.5 -26t36.5 -41 q20 -24 30 -44t10 -39q0 -44 -67 -89q-21 -14 -49.5 -30.5t-61 -34t-66.5 -35.5t-66 -34q-76 -39 -158 -79z" />
<glyph unicode="&#xd4;" horiz-adv-x="1401" d="M115 709q0 225 40 370t116 228.5t185 116t246 32.5q91 0 170 -14t144 -47t115 -88.5t84.5 -138.5t52.5 -196.5t18 -262.5t-18 -262t-52.5 -195.5t-84.5 -137t-115 -86.5t-144 -45.5t-170 -13.5q-92 0 -171 13t-144 45.5t-115.5 86.5t-85.5 136.5t-53 195.5t-18 263z M367 709q0 -155 15.5 -255.5t53.5 -159t103 -81.5t163 -23t162.5 23t102.5 81.5t53.5 159t15.5 255.5q0 156 -15.5 257t-53.5 160.5t-102.5 83t-162.5 23.5t-163 -23.5t-103 -83t-53.5 -160.5t-15.5 -257zM370 1575l101 252q17 42 38.5 68.5t49 41t62.5 20t79 5.5t79 -5.5 t62.5 -20t49.5 -41t39 -68.5l100 -252l-117 -57l-213 309l-213 -309z" />
<glyph unicode="&#xd5;" horiz-adv-x="1401" d="M115 709q0 225 40 370t116 228.5t185 116t246 32.5q91 0 170 -14t144 -47t115 -88.5t84.5 -138.5t52.5 -196.5t18 -262.5t-18 -262t-52.5 -195.5t-84.5 -137t-115 -86.5t-144 -45.5t-170 -13.5q-92 0 -171 13t-144 45.5t-115.5 86.5t-85.5 136.5t-53 195.5t-18 263z M292 1620q4 33 21.5 70t48.5 68.5t74 53t98 23.5q37 1 69 -7.5t61 -21t55.5 -28t51.5 -28t50 -21t51 -7.5q32 2 55.5 16t39.5 31q18 19 32 45l109 -69q-4 -33 -22.5 -70t-49 -68.5t-73.5 -53t-97 -23.5t-101 16t-88.5 39.5t-78.5 39.5t-70 17q-33 -2 -57 -16.5t-40 -31.5 q-18 -20 -30 -44zM367 709q0 -155 15.5 -255.5t53.5 -159t103 -81.5t163 -23t162.5 23t102.5 81.5t53.5 159t15.5 255.5q0 156 -15.5 257t-53.5 160.5t-102.5 83t-162.5 23.5t-163 -23.5t-103 -83t-53.5 -160.5t-15.5 -257z" />
<glyph unicode="&#xd6;" horiz-adv-x="1401" d="M115 709q0 225 40 370t116 228.5t185 116t246 32.5q91 0 170 -14t144 -47t115 -88.5t84.5 -138.5t52.5 -196.5t18 -262.5t-18 -262t-52.5 -195.5t-84.5 -137t-115 -86.5t-144 -45.5t-170 -13.5q-92 0 -171 13t-144 45.5t-115.5 86.5t-85.5 136.5t-53 195.5t-18 263z M323 1691q0 47 6.5 76.5t24 46.5t47 23t74.5 6q46 0 76 -6t47 -23t24 -46.5t7 -76.5q0 -46 -7 -75.5t-24 -47t-47 -24t-76 -6.5q-45 0 -74.5 6.5t-47 24t-24 47t-6.5 75.5zM367 709q0 -155 15.5 -255.5t53.5 -159t103 -81.5t163 -23t162.5 23t102.5 81.5t53.5 159 t15.5 255.5q0 156 -15.5 257t-53.5 160.5t-102.5 83t-162.5 23.5t-163 -23.5t-103 -83t-53.5 -160.5t-15.5 -257zM788 1691q0 47 6.5 76.5t24 46.5t47 23t74.5 6q46 0 76 -6t47 -23t24 -46.5t7 -76.5q0 -46 -7 -75.5t-24 -47t-47 -24t-76 -6.5q-45 0 -74.5 6.5t-47 24 t-24 47t-6.5 75.5z" />
<glyph unicode="&#xd7;" horiz-adv-x="1004" d="M45 987l146 143l313 -323l311 321l138 -139l-314 -323l320 -330l-146 -143l-317 325l-311 -321l-138 137l314 325z" />
<glyph unicode="&#xd8;" horiz-adv-x="1451" d="M140 709q0 225 40 370t116 228.5t185 116t246 32.5q58 0 110.5 -5.5t100.5 -17.5l74 162h219l-114 -251q47 -40 83 -97t61 -134.5t37.5 -177.5t12.5 -226q0 -149 -18 -262t-52.5 -195.5t-84.5 -137t-115 -86.5t-144 -45.5t-170 -13.5q-62 0 -117.5 5.5t-105.5 19.5 l-75 -166h-220l117 257q-45 39 -79.5 95.5t-58.5 133t-36 174.5t-12 221zM392 709q0 -132 10.5 -223t36.5 -151l404 888q-49 10 -116 10q-98 0 -163 -23.5t-103 -83t-53.5 -160.5t-15.5 -257zM599 202q27 -7 59 -9.5t69 -2.5q98 0 162.5 23t102.5 81.5t53.5 159t15.5 255.5 q0 140 -12.5 235t-42.5 156z" />
<glyph unicode="&#xd9;" horiz-adv-x="1405" d="M177 455v972h238v-954q0 -85 15 -140t49.5 -86.5t89.5 -44t135 -12.5q72 0 125.5 12.5t89.5 44t53.5 86.5t17.5 140v954h238v-968q0 -125 -28.5 -217t-91.5 -152.5t-162.5 -90.5t-241.5 -30t-242 29.5t-163.5 89.5t-92.5 151.5t-29 215.5zM413 1818q0 19 10 39t30 44 t36.5 40t29.5 26q15 11 27 18l423 -353l-88 -116q-82 40 -158 79q-32 16 -66.5 34t-66.5 35.5t-60.5 34t-49.5 30.5q-67 45 -67 89z" />
<glyph unicode="&#xda;" horiz-adv-x="1405" d="M177 455v972h238v-954q0 -85 15 -140t49.5 -86.5t89.5 -44t135 -12.5q72 0 125.5 12.5t89.5 44t53.5 86.5t17.5 140v954h238v-968q0 -125 -28.5 -217t-91.5 -152.5t-162.5 -90.5t-241.5 -30t-242 29.5t-163.5 89.5t-92.5 151.5t-29 215.5zM476 1653l424 352q12 -6 27 -17 q13 -10 29.5 -26t36.5 -41q20 -24 30 -44t10 -39q0 -44 -67 -89q-21 -14 -49.5 -30.5t-61 -34t-66.5 -35.5t-66 -34q-76 -39 -158 -79z" />
<glyph unicode="&#xdb;" horiz-adv-x="1405" d="M177 455v972h238v-954q0 -85 15 -140t49.5 -86.5t89.5 -44t135 -12.5q72 0 125.5 12.5t89.5 44t53.5 86.5t17.5 140v954h238v-968q0 -125 -28.5 -217t-91.5 -152.5t-162.5 -90.5t-241.5 -30t-242 29.5t-163.5 89.5t-92.5 151.5t-29 215.5zM371 1556l101 252 q17 42 38.5 68.5t49 41t62.5 20t79 5.5t79 -5.5t62.5 -20t49.5 -41t39 -68.5l100 -252l-117 -57l-213 309l-213 -309z" />
<glyph unicode="&#xdc;" horiz-adv-x="1405" d="M177 455v972h238v-954q0 -85 15 -140t49.5 -86.5t89.5 -44t135 -12.5q72 0 125.5 12.5t89.5 44t53.5 86.5t17.5 140v954h238v-968q0 -125 -28.5 -217t-91.5 -152.5t-162.5 -90.5t-241.5 -30t-242 29.5t-163.5 89.5t-92.5 151.5t-29 215.5zM324 1691q0 47 6.5 76.5 t24 46.5t47 23t74.5 6q46 0 76 -6t47 -23t24 -46.5t7 -76.5q0 -46 -7 -75.5t-24 -47t-47 -24t-76 -6.5q-45 0 -74.5 6.5t-47 24t-24 47t-6.5 75.5zM789 1691q0 47 6.5 76.5t24 46.5t47 23t74.5 6q46 0 76 -6t47 -23t24 -46.5t7 -76.5q0 -46 -7 -75.5t-24 -47t-47 -24 t-76 -6.5q-45 0 -74.5 6.5t-47 24t-24 47t-6.5 75.5z" />
<glyph unicode="&#xdd;" horiz-adv-x="1221" d="M0 1427h281l327 -622h4l328 622h281l-492 -876v-551h-237v551zM444 1593l424 352q12 -6 27 -17q13 -10 29.5 -26t36.5 -41q20 -24 30 -44t10 -39q0 -44 -67 -89q-21 -14 -49.5 -30.5t-61 -34t-66.5 -35.5t-66 -34q-76 -39 -158 -79z" />
<glyph unicode="&#xde;" horiz-adv-x="1228" d="M182 0v1427h240v-273q19 6 51.5 14.5t73.5 17t88 14t96 5.5q93 0 174.5 -21.5t142 -77t95.5 -151.5t35 -244q0 -151 -34.5 -247.5t-95.5 -152t-144.5 -76.5t-180.5 -21q-45 0 -89.5 5.5t-84.5 13.5t-73 17t-54 16v-266h-240zM422 442q20 -4 77 -10.5t138 -6.5 q70 0 125 12t93.5 43.5t58.5 87.5t20 145q0 88 -16.5 143.5t-50.5 86.5t-86 42t-122 11q-42 0 -81 -2t-71 -4t-54.5 -4.5t-30.5 -3.5v-540z" />
<glyph unicode="&#xdf;" horiz-adv-x="1220" d="M175 0v1040q0 91 22 167.5t75 132t140 86t218 30.5q127 0 212 -30t136 -79.5t72.5 -114t21.5 -134.5q0 -84 -23.5 -143.5t-55 -98t-62 -58.5t-45.5 -24q-5 -2 -5 -8t5 -8q13 -4 36 -14t49.5 -29t54 -49t49.5 -73.5t36 -101.5t14 -133q0 -96 -29.5 -167t-80.5 -118.5 t-119 -70.5t-145 -23q-55 0 -99.5 6t-76.5 14q-37 9 -66 21l4 176q25 -4 55 -8q26 -3 59.5 -5t71.5 -2q40 0 74 11t58.5 34t38.5 60t14 89q0 71 -19.5 115.5t-49.5 72t-66 44.5t-70 34q-11 5 -17 33.5t-6 60.5t6 58.5t17 33.5q23 14 51 33t52 46.5t40.5 64.5t16.5 88 q0 57 -9.5 92.5t-33 56t-64.5 28t-104 7.5q-59 0 -99.5 -10.5t-65.5 -35t-36.5 -63.5t-11.5 -96v-1038h-240z" />
<glyph unicode="&#xe0;" horiz-adv-x="1180" d="M127 299q0 90 26.5 152t72 100t107 55t132.5 17q72 0 130.5 -8t101.5 -18q49 -11 89 -25v98q0 37 -2.5 62.5t-8.5 44.5t-16.5 32t-25.5 25q-32 23 -88 33t-146 10q-57 0 -110.5 -3.5t-95.5 -8.5q-49 -5 -93 -11v166q40 16 99 29q50 11 125 20.5t178 9.5q69 0 122.5 -5.5 t94.5 -18.5t72.5 -34t56.5 -52q21 -26 35 -55t23 -68t12.5 -89.5t3.5 -117.5v-639h-201l-18 78q-44 -31 -97 -55q-46 -20 -107.5 -37t-135.5 -17q-90 0 -154 18t-104.5 57t-59 102t-18.5 153zM324 1478q0 17 9.5 35t28.5 41q17 22 35 38.5t32 27.5q17 13 32 22l393 -368 l-100 -123q-76 46 -142 87q-28 18 -57 36t-55.5 34.5t-47.5 31t-34 24.5q-49 37 -71.5 63t-22.5 51zM370 299q0 -44 11 -70t32 -39.5t51.5 -17.5t69.5 -4q51 0 96.5 9.5t80.5 20.5q40 13 75 30v183q-32 6 -69 11q-32 5 -72.5 8.5t-85.5 3.5q-50 0 -85.5 -4.5t-58.5 -19 t-34 -41t-11 -70.5z" />
<glyph unicode="&#xe1;" horiz-adv-x="1180" d="M127 299q0 90 26.5 152t72 100t107 55t132.5 17q72 0 130.5 -8t101.5 -18q49 -11 89 -25v98q0 37 -2.5 62.5t-8.5 44.5t-16.5 32t-25.5 25q-32 23 -88 33t-146 10q-57 0 -110.5 -3.5t-95.5 -8.5q-49 -5 -93 -11v166q40 16 99 29q50 11 125 20.5t178 9.5q69 0 122.5 -5.5 t94.5 -18.5t72.5 -34t56.5 -52q21 -26 35 -55t23 -68t12.5 -89.5t3.5 -117.5v-639h-201l-18 78q-44 -31 -97 -55q-46 -20 -107.5 -37t-135.5 -17q-90 0 -154 18t-104.5 57t-59 102t-18.5 153zM327 1278l408 383q13 -7 29 -19q14 -11 31.5 -28t39.5 -43q19 -23 29 -42t10 -36 q0 -25 -22.5 -50.5t-73.5 -62.5q-14 -10 -36 -25t-49 -33t-57 -37.5t-59 -38.5q-69 -45 -147 -95zM370 299q0 -44 11 -70t32 -39.5t51.5 -17.5t69.5 -4q51 0 96.5 9.5t80.5 20.5q40 13 75 30v183q-32 6 -69 11q-32 5 -72.5 8.5t-85.5 3.5q-50 0 -85.5 -4.5t-58.5 -19 t-34 -41t-11 -70.5z" />
<glyph unicode="&#xe2;" horiz-adv-x="1180" d="M127 299q0 90 26.5 152t72 100t107 55t132.5 17q72 0 130.5 -8t101.5 -18q49 -11 89 -25v98q0 37 -2.5 62.5t-8.5 44.5t-16.5 32t-25.5 25q-32 23 -88 33t-146 10q-57 0 -110.5 -3.5t-95.5 -8.5q-49 -5 -93 -11v166q40 16 99 29q50 11 125 20.5t178 9.5q69 0 122.5 -5.5 t94.5 -18.5t72.5 -34t56.5 -52q21 -26 35 -55t23 -68t12.5 -89.5t3.5 -117.5v-639h-201l-18 78q-44 -31 -97 -55q-46 -20 -107.5 -37t-135.5 -17q-90 0 -154 18t-104.5 57t-59 102t-18.5 153zM207 1204l154 276q22 40 44 66t48.5 41.5t59.5 21.5t77 6t77 -6t59.5 -21.5 t49 -41.5t44.5 -66l153 -276l-113 -74l-270 327l-270 -327zM370 299q0 -44 11 -70t32 -39.5t51.5 -17.5t69.5 -4q51 0 96.5 9.5t80.5 20.5q40 13 75 30v183q-32 6 -69 11q-32 5 -72.5 8.5t-85.5 3.5q-50 0 -85.5 -4.5t-58.5 -19t-34 -41t-11 -70.5z" />
<glyph unicode="&#xe3;" horiz-adv-x="1180" d="M127 299q0 90 26.5 152t72 100t107 55t132.5 17q72 0 130.5 -8t101.5 -18q49 -11 89 -25v98q0 37 -2.5 62.5t-8.5 44.5t-16.5 32t-25.5 25q-32 23 -88 33t-146 10q-57 0 -110.5 -3.5t-95.5 -8.5q-49 -5 -93 -11v166q40 16 99 29q50 11 125 20.5t178 9.5q69 0 122.5 -5.5 t94.5 -18.5t72.5 -34t56.5 -52q21 -26 35 -55t23 -68t12.5 -89.5t3.5 -117.5v-639h-201l-18 78q-44 -31 -97 -55q-46 -20 -107.5 -37t-135.5 -17q-90 0 -154 18t-104.5 57t-59 102t-18.5 153zM182 1264q4 33 21.5 70t48.5 68.5t74 53t98 23.5q37 1 69 -7.5t61 -21t55.5 -28 t51.5 -28t50 -21t51 -7.5q32 2 55.5 16t39.5 31q18 19 32 45l109 -69q-4 -33 -22.5 -70t-49 -68.5t-73.5 -53t-97 -23.5t-101 15.5t-88.5 39.5t-78.5 40t-70 17q-33 -2 -57 -16.5t-40 -31.5q-18 -20 -30 -44zM370 299q0 -44 11 -70t32 -39.5t51.5 -17.5t69.5 -4 q51 0 96.5 9.5t80.5 20.5q40 13 75 30v183q-32 6 -69 11q-32 5 -72.5 8.5t-85.5 3.5q-50 0 -85.5 -4.5t-58.5 -19t-34 -41t-11 -70.5z" />
<glyph unicode="&#xe4;" horiz-adv-x="1180" d="M127 299q0 90 26.5 152t72 100t107 55t132.5 17q72 0 130.5 -8t101.5 -18q49 -11 89 -25v98q0 37 -2.5 62.5t-8.5 44.5t-16.5 32t-25.5 25q-32 23 -88 33t-146 10q-57 0 -110.5 -3.5t-95.5 -8.5q-49 -5 -93 -11v166q40 16 99 29q50 11 125 20.5t178 9.5q69 0 122.5 -5.5 t94.5 -18.5t72.5 -34t56.5 -52q21 -26 35 -55t23 -68t12.5 -89.5t3.5 -117.5v-639h-201l-18 78q-44 -31 -97 -55q-46 -20 -107.5 -37t-135.5 -17q-90 0 -154 18t-104.5 57t-59 102t-18.5 153zM200 1317q0 47 6.5 76.5t24 46.5t47 23t74.5 6q46 0 76 -6t47 -23t24 -46.5 t7 -76.5q0 -46 -7 -75.5t-24 -47t-47 -24t-76 -6.5q-45 0 -74.5 6.5t-47 24t-24 47t-6.5 75.5zM370 299q0 -44 11 -70t32 -39.5t51.5 -17.5t69.5 -4q51 0 96.5 9.5t80.5 20.5q40 13 75 30v183q-32 6 -69 11q-32 5 -72.5 8.5t-85.5 3.5q-50 0 -85.5 -4.5t-58.5 -19t-34 -41 t-11 -70.5zM669 1317q0 47 6.5 76.5t24 46.5t47 23t74.5 6q46 0 76 -6t47 -23t24 -46.5t7 -76.5q0 -46 -7 -75.5t-24 -47t-47 -24t-76 -6.5q-45 0 -74.5 6.5t-47 24t-24 47t-6.5 75.5z" />
<glyph unicode="&#xe5;" horiz-adv-x="1180" d="M127 299q0 90 26.5 152t72 100t107 55t132.5 17q72 0 130.5 -8t101.5 -18q49 -11 89 -25v98q0 37 -2.5 62.5t-8.5 44.5t-16.5 32t-25.5 25q-32 23 -88 33t-146 10q-57 0 -110.5 -3.5t-95.5 -8.5q-49 -5 -93 -11v166q40 16 99 29q50 11 125 20.5t178 9.5q69 0 122.5 -5.5 t94.5 -18.5t72.5 -34t56.5 -52q21 -26 35 -55t23 -68t12.5 -89.5t3.5 -117.5v-639h-201l-18 78q-44 -31 -97 -55q-46 -20 -107.5 -37t-135.5 -17q-90 0 -154 18t-104.5 57t-59 102t-18.5 153zM337 1388q0 75 19.5 122.5t53.5 74.5t80 37t99 10t99 -10t80 -37t53.5 -74.5 t19.5 -122.5q0 -74 -18.5 -121t-52 -74t-80 -37t-101.5 -10q-54 0 -100.5 10t-80 37t-52.5 74t-19 121zM370 299q0 -44 11 -70t32 -39.5t51.5 -17.5t69.5 -4q51 0 96.5 9.5t80.5 20.5q40 13 75 30v183q-32 6 -69 11q-32 5 -72.5 8.5t-85.5 3.5q-50 0 -85.5 -4.5t-58.5 -19 t-34 -41t-11 -70.5zM499 1388q0 -32 4.5 -53.5t15 -34.5t28 -18t42.5 -5q26 0 44 5t29 18t15.5 34.5t4.5 53.5q0 33 -4.5 54.5t-15.5 34t-29 17.5t-44 5q-25 0 -42.5 -5t-28 -17.5t-15 -34t-4.5 -54.5z" />
<glyph unicode="&#xe6;" horiz-adv-x="1781" d="M127 301q0 167 99.5 250.5t297.5 83.5h272v35q0 37 -2.5 63t-8.5 44.5t-16.5 31.5t-25.5 25q-32 23 -93 33t-151 10q-59 0 -110.5 -3.5t-91.5 -8.5q-47 -5 -86 -11v166q53 18 113 32q51 12 117 22.5t138 10.5q131 0 220.5 -37.5t131.5 -109.5q44 69 134.5 108t230.5 39 q121 0 200.5 -32t126.5 -90.5t66 -140.5t19 -182q0 -47 -3.5 -96.5t-9.5 -103.5l-661 4q2 -69 14.5 -118.5t44.5 -81.5t88 -47t146 -15q69 0 129.5 3.5t106.5 8.5q53 5 98 13v-170q-51 -19 -111 -34q-51 -13 -119 -23.5t-145 -10.5q-74 0 -132.5 7t-106.5 24.5t-89 47.5 t-81 77q-62 -70 -154 -113t-213 -43q-108 0 -181.5 23.5t-118.5 66.5t-64 104.5t-19 137.5zM360 311q0 -47 10 -75t30.5 -43t52.5 -20t77 -5q90 0 162 28.5t121 70.5q-7 29 -11 60t-6 66l-2 51h-227q-56 0 -95.5 -8t-64.5 -24t-36 -41.5t-11 -59.5zM1034 635h455v32 q0 54 -7.5 95t-30.5 68.5t-65.5 41t-112.5 13.5q-79 0 -126 -19t-72 -52.5t-33 -79t-8 -99.5z" />
<glyph unicode="&#xe7;" horiz-adv-x="965" d="M94 528q0 150 36.5 255t99 170.5t146.5 95.5t179 30q73 0 131 -9.5t99 -20.5q48 -13 83 -29v-164q-34 3 -74 7q-34 2 -77 4.5t-90 2.5q-75 0 -129 -13t-88 -49.5t-50 -103t-16 -174.5q0 -110 18.5 -178t56.5 -105.5t95 -50t135 -12.5q49 0 90.5 2.5t72.5 6.5q36 4 65 10 v-166q-32 -18 -78 -32q-39 -12 -98 -22t-138 -10q-97 0 -182.5 26.5t-149 90.5t-100.5 170.5t-37 267.5zM344 -446l35 133q16 -4 39 -8q19 -3 46.5 -5t62.5 -2q51 0 77.5 12t34.5 50q9 71 -100 71q-17 0 -35.5 -1.5t-35.5 -3.5q-19 -3 -38 -5l54 205h205l-27 -92 q36 3 67 -5.5t54 -27.5t36.5 -49t13.5 -70q0 -11 -1.5 -23t-3.5 -26q-11 -53 -31.5 -89.5t-54.5 -59.5t-83 -33t-116 -10q-37 0 -72.5 5.5t-63.5 13.5q-33 9 -63 20z" />
<glyph unicode="&#xe8;" horiz-adv-x="1085" d="M94 539q0 165 43 271t114 167t162 84.5t187 23.5q121 0 200.5 -33t126.5 -92.5t66 -142.5t19 -183q0 -47 -3.5 -97t-9.5 -103h-661q1 -71 15.5 -119.5t48 -79t89 -44t138.5 -13.5q70 0 131 3.5t107 8.5q54 5 98 13v-166q-51 -19 -111 -34q-51 -13 -119 -23.5t-145 -10.5 q-118 0 -210 29.5t-155.5 97t-97 176.5t-33.5 267zM289 1478q0 17 9.5 35t28.5 41q17 22 35 38.5t32 27.5q17 13 32 22l393 -368l-100 -123q-76 46 -142 87q-28 18 -57 36t-55.5 34.5t-47.5 31t-34 24.5q-49 37 -71.5 63t-22.5 51zM336 612h457v38q0 60 -7.5 104.5 t-30.5 73.5t-65 43t-112 14q-75 0 -122.5 -17.5t-74 -52t-36 -85.5t-9.5 -118z" />
<glyph unicode="&#xe9;" horiz-adv-x="1085" d="M94 539q0 165 43 271t114 167t162 84.5t187 23.5q121 0 200.5 -33t126.5 -92.5t66 -142.5t19 -183q0 -47 -3.5 -97t-9.5 -103h-661q1 -71 15.5 -119.5t48 -79t89 -44t138.5 -13.5q70 0 131 3.5t107 8.5q54 5 98 13v-166q-51 -19 -111 -34q-51 -13 -119 -23.5t-145 -10.5 q-118 0 -210 29.5t-155.5 97t-97 176.5t-33.5 267zM331 1278l408 383q13 -7 29 -19q14 -11 31.5 -28t39.5 -43q19 -23 29 -42t10 -36q0 -25 -22.5 -50.5t-73.5 -62.5q-14 -10 -36 -25t-49 -33t-57 -37.5t-59 -38.5q-69 -45 -147 -95zM336 612h457v38q0 60 -7.5 104.5 t-30.5 73.5t-65 43t-112 14q-75 0 -122.5 -17.5t-74 -52t-36 -85.5t-9.5 -118z" />
<glyph unicode="&#xea;" horiz-adv-x="1085" d="M94 539q0 165 43 271t114 167t162 84.5t187 23.5q121 0 200.5 -33t126.5 -92.5t66 -142.5t19 -183q0 -47 -3.5 -97t-9.5 -103h-661q1 -71 15.5 -119.5t48 -79t89 -44t138.5 -13.5q70 0 131 3.5t107 8.5q54 5 98 13v-166q-51 -19 -111 -34q-51 -13 -119 -23.5t-145 -10.5 q-118 0 -210 29.5t-155.5 97t-97 176.5t-33.5 267zM209 1181l154 276q22 40 44 66t48.5 41.5t59.5 21.5t77 6t77 -6t59.5 -21.5t49 -41.5t44.5 -66l153 -276l-113 -74l-270 327l-270 -327zM336 612h457v38q0 60 -7.5 104.5t-30.5 73.5t-65 43t-112 14q-75 0 -122.5 -17.5 t-74 -52t-36 -85.5t-9.5 -118z" />
<glyph unicode="&#xeb;" horiz-adv-x="1085" d="M94 539q0 165 43 271t114 167t162 84.5t187 23.5q121 0 200.5 -33t126.5 -92.5t66 -142.5t19 -183q0 -47 -3.5 -97t-9.5 -103h-661q1 -71 15.5 -119.5t48 -79t89 -44t138.5 -13.5q70 0 131 3.5t107 8.5q54 5 98 13v-166q-51 -19 -111 -34q-51 -13 -119 -23.5t-145 -10.5 q-118 0 -210 29.5t-155.5 97t-97 176.5t-33.5 267zM188 1174q0 42 5.5 69t21.5 42t42.5 20.5t67.5 5.5t68 -5.5t42.5 -20.5t21.5 -42t6 -69q0 -41 -6 -67.5t-21.5 -42.5t-42.5 -22t-68 -6t-67.5 6t-42.5 22t-21.5 42.5t-5.5 67.5zM336 612h457v38q0 60 -7.5 104.5 t-30.5 73.5t-65 43t-112 14q-75 0 -122.5 -17.5t-74 -52t-36 -85.5t-9.5 -118zM612 1174q0 42 5.5 69t21.5 42t42.5 20.5t67.5 5.5t68 -5.5t42.5 -20.5t21.5 -42t6 -69q0 -41 -6 -67.5t-21.5 -42.5t-42.5 -22t-68 -6t-67.5 6t-42.5 22t-21.5 42.5t-5.5 67.5z" />
<glyph unicode="&#xec;" horiz-adv-x="616" d="M1 1478q0 17 9.5 35t28.5 41q17 22 35 38.5t32 27.5q17 13 32 22l393 -368l-100 -123q-76 46 -142 87q-28 18 -57 36t-55.5 34.5t-47.5 31t-34 24.5q-49 37 -71.5 63t-22.5 51zM197 0v1055h238v-1055h-238z" />
<glyph unicode="&#xed;" horiz-adv-x="633" d="M85 1264l408 383q13 -7 29 -19q14 -11 31.5 -28t39.5 -43q19 -23 29 -42t10 -36q0 -25 -22.5 -50.5t-73.5 -62.5q-14 -10 -36 -25t-49 -33t-57 -37.5t-59 -38.5q-69 -45 -147 -95zM194 0v1055h238v-1055h-238z" />
<glyph unicode="&#xee;" horiz-adv-x="610" d="M-25 1164l101 252q17 42 38.5 68.5t49 41t62.5 20t79 5.5t79 -5.5t62.5 -20t49.5 -41t39 -68.5l100 -252l-117 -57l-213 309l-213 -309zM186 0v1055h238v-1055h-238z" />
<glyph unicode="&#xef;" horiz-adv-x="606" d="M-50 1303q0 42 5.5 68.5t21.5 42t42.5 21t66.5 5.5q42 0 69 -5.5t42 -21t21.5 -42t6.5 -68.5q0 -41 -6.5 -67.5t-21.5 -42.5t-42 -22t-69 -6q-40 0 -66.5 6t-42.5 22t-21.5 42.5t-5.5 67.5zM188 0v1055h238v-1055h-238zM381 1303q0 42 5.5 68.5t21.5 42t42.5 21t66.5 5.5 q42 0 69 -5.5t42 -21t21.5 -42t6.5 -68.5q0 -41 -6.5 -67.5t-21.5 -42.5t-42 -22t-69 -6q-40 0 -66.5 6t-42.5 22t-21.5 42.5t-5.5 67.5z" />
<glyph unicode="&#xf0;" horiz-adv-x="1173" d="M111 476q0 134 25 221t70 137.5t108.5 70.5t140.5 20q38 0 81.5 -5t88.5 -15t89.5 -25t86.5 -35q0 106 -40 194.5t-106 157.5l-198 -174l-99 145l158 138q-64 38 -132 59t-134 26l24 173q125 -7 225.5 -36t181.5 -77l196 171l97 -143l-153 -135q57 -58 98 -126t67.5 -142 t39 -153t12.5 -159v-350q0 -121 -32 -205.5t-91.5 -138t-143.5 -77.5t-187 -24q-125 0 -214.5 30t-147 92t-84.5 158t-27 227zM358 485q0 -72 10.5 -126t36 -90.5t69 -55t110.5 -18.5q68 0 110.5 15t66 46.5t32 80t8.5 116.5v218q1 0 -17 6t-48.5 13.5t-70 13.5t-81.5 6 q-62 0 -105 -6t-70 -29t-39 -67.5t-12 -122.5z" />
<glyph unicode="&#xf1;" horiz-adv-x="1243" d="M166 0v1055h174l29 -78q55 30 120 54q56 20 129 37t156 17q156 0 230.5 -81.5t74.5 -255.5v-748h-237v719q0 41 -5.5 70.5t-23.5 48t-52 27.5t-91 9q-60 0 -109 -7.5t-84 -15.5q-41 -10 -74 -22v-829h-237zM223 1266q4 33 21.5 70t48.5 68.5t74 53t98 23.5q37 1 69 -7.5 t61 -21t55.5 -28t51.5 -28t50 -21t51 -7.5q32 2 55.5 16t39.5 31q18 19 32 45l109 -69q-4 -33 -22.5 -70t-49 -68.5t-73.5 -53t-97 -23.5t-101 15.5t-88.5 39.5t-78.5 40t-70 17q-33 -2 -57 -16.5t-40 -31.5q-18 -20 -30 -44z" />
<glyph unicode="&#xf2;" horiz-adv-x="1188" d="M94 528q0 134 29 237.5t90.5 174.5t155.5 108t225 37t225.5 -37t155.5 -108t90 -174.5t29 -237.5t-29 -238.5t-90 -175.5t-155.5 -108t-225.5 -37t-225 37t-155.5 108t-90.5 175.5t-29 238.5zM320 1478q0 17 9.5 35t28.5 41q17 22 35 38.5t32 27.5q17 13 32 22l393 -368 l-100 -123q-76 46 -142 87q-28 18 -57 36t-55.5 34.5t-47.5 31t-34 24.5q-49 37 -71.5 63t-22.5 51zM344 528q0 -87 9.5 -153.5t37 -112t76.5 -69t127 -23.5q79 0 128 23.5t76 69t36.5 112t9.5 153.5q0 86 -9.5 152.5t-36.5 112t-76 69t-128 23.5q-78 0 -127 -23.5 t-76.5 -69t-37 -112t-9.5 -152.5z" />
<glyph unicode="&#xf3;" horiz-adv-x="1188" d="M94 528q0 134 29 237.5t90.5 174.5t155.5 108t225 37t225.5 -37t155.5 -108t90 -174.5t29 -237.5t-29 -238.5t-90 -175.5t-155.5 -108t-225.5 -37t-225 37t-155.5 108t-90.5 175.5t-29 238.5zM309 1278l408 383q13 -7 29 -19q14 -11 31.5 -28t39.5 -43q19 -23 29 -42 t10 -36q0 -25 -22.5 -50.5t-73.5 -62.5q-14 -10 -36 -25t-49 -33t-57 -37.5t-59 -38.5q-69 -45 -147 -95zM344 528q0 -87 9.5 -153.5t37 -112t76.5 -69t127 -23.5q79 0 128 23.5t76 69t36.5 112t9.5 153.5q0 86 -9.5 152.5t-36.5 112t-76 69t-128 23.5q-78 0 -127 -23.5 t-76.5 -69t-37 -112t-9.5 -152.5z" />
<glyph unicode="&#xf4;" horiz-adv-x="1188" d="M94 528q0 134 29 237.5t90.5 174.5t155.5 108t225 37t225.5 -37t155.5 -108t90 -174.5t29 -237.5t-29 -238.5t-90 -175.5t-155.5 -108t-225.5 -37t-225 37t-155.5 108t-90.5 175.5t-29 238.5zM211 1184l154 276q22 40 44 66t48.5 41.5t59.5 21.5t77 6t77 -6t59.5 -21.5 t49 -41.5t44.5 -66l153 -276l-113 -74l-270 327l-270 -327zM344 528q0 -87 9.5 -153.5t37 -112t76.5 -69t127 -23.5q79 0 128 23.5t76 69t36.5 112t9.5 153.5q0 86 -9.5 152.5t-36.5 112t-76 69t-128 23.5q-78 0 -127 -23.5t-76.5 -69t-37 -112t-9.5 -152.5z" />
<glyph unicode="&#xf5;" horiz-adv-x="1188" d="M94 528q0 134 29 237.5t90.5 174.5t155.5 108t225 37t225.5 -37t155.5 -108t90 -174.5t29 -237.5t-29 -238.5t-90 -175.5t-155.5 -108t-225.5 -37t-225 37t-155.5 108t-90.5 175.5t-29 238.5zM186 1264q4 33 21.5 70t48.5 68.5t74 53t98 23.5q37 1 69 -7.5t61 -21 t55.5 -28t51.5 -28t50 -21t51 -7.5q32 2 55.5 16t39.5 31q18 19 32 45l109 -69q-4 -33 -22.5 -70t-49 -68.5t-73.5 -53t-97 -23.5t-101 15.5t-88.5 39.5t-78.5 40t-70 17q-33 -2 -57 -16.5t-40 -31.5q-18 -20 -30 -44zM344 528q0 -87 9.5 -153.5t37 -112t76.5 -69t127 -23.5 q79 0 128 23.5t76 69t36.5 112t9.5 153.5q0 86 -9.5 152.5t-36.5 112t-76 69t-128 23.5q-78 0 -127 -23.5t-76.5 -69t-37 -112t-9.5 -152.5z" />
<glyph unicode="&#xf6;" horiz-adv-x="1188" d="M94 528q0 134 29 237.5t90.5 174.5t155.5 108t225 37t225.5 -37t155.5 -108t90 -174.5t29 -237.5t-29 -238.5t-90 -175.5t-155.5 -108t-225.5 -37t-225 37t-155.5 108t-90.5 175.5t-29 238.5zM210 1200q0 42 5.5 69t21.5 42t42.5 20.5t67.5 5.5t68 -5.5t42.5 -20.5 t21.5 -42t6 -69q0 -41 -6 -67.5t-21.5 -42.5t-42.5 -22t-68 -6t-67.5 6t-42.5 22t-21.5 42.5t-5.5 67.5zM344 528q0 -87 9.5 -153.5t37 -112t76.5 -69t127 -23.5q79 0 128 23.5t76 69t36.5 112t9.5 153.5q0 86 -9.5 152.5t-36.5 112t-76 69t-128 23.5q-78 0 -127 -23.5 t-76.5 -69t-37 -112t-9.5 -152.5zM634 1200q0 42 5.5 69t21.5 42t42.5 20.5t67.5 5.5t68 -5.5t42.5 -20.5t21.5 -42t6 -69q0 -41 -6 -67.5t-21.5 -42.5t-42.5 -22t-68 -6t-67.5 6t-42.5 22t-21.5 42.5t-5.5 67.5z" />
<glyph unicode="&#xf7;" horiz-adv-x="1124" d="M60 539v194h1004v-194h-1004zM413 272q0 45 6.5 74t23.5 46t45.5 23.5t73.5 6.5q44 0 72.5 -6.5t45.5 -23.5t23.5 -46t6.5 -74q0 -44 -6.5 -72t-23.5 -45t-45.5 -23.5t-72.5 -6.5q-45 0 -73.5 6.5t-45.5 23.5t-23.5 45t-6.5 72zM413 999q0 44 6.5 72.5t23.5 45.5 t45.5 23.5t73.5 6.5q44 0 72.5 -6.5t45.5 -23.5t23.5 -45.5t6.5 -72.5t-6.5 -73t-23.5 -46t-45.5 -23.5t-72.5 -6.5q-45 0 -73.5 6.5t-45.5 23.5t-23.5 46t-6.5 73z" />
<glyph unicode="&#xf8;" horiz-adv-x="1200" d="M94 528q0 134 29 237.5t90.5 174.5t155.5 108t225 37q57 0 107 -7t93 -21l91 176h159l-124 -241q90 -69 132 -186t42 -278q0 -134 -29 -238.5t-90 -175.5t-155.5 -108t-225.5 -37q-105 0 -186 24l-85 -165h-159l116 225q-97 69 -141.5 188t-44.5 287zM344 528 q0 -86 9.5 -151.5t35.5 -111.5l310 605q-44 15 -105 15q-78 0 -127 -23.5t-76.5 -69t-37 -112t-9.5 -152.5zM504 180q37 -10 90 -10q79 0 128 23.5t76 69t36.5 112t9.5 153.5q0 78 -7.5 139t-28.5 106z" />
<glyph unicode="&#xf9;" horiz-adv-x="1245" d="M166 309v746h237v-719q0 -42 5.5 -71t23.5 -47.5t52 -27t91 -8.5q60 0 109 6.5t84 14.5q41 10 74 22v830h237v-1055h-174l-28 78q-56 -31 -121 -55q-56 -20 -129.5 -37t-155.5 -17q-155 0 -230 82.5t-75 257.5zM316 1438q0 17 9.5 35t28.5 41q17 22 35 38.5t32 27.5 q17 13 32 22l393 -368l-100 -123q-76 46 -142 87q-28 18 -57 36t-55.5 34.5t-47.5 31t-34 24.5q-49 37 -71.5 63t-22.5 51z" />
<glyph unicode="&#xfa;" horiz-adv-x="1245" d="M166 309v746h237v-719q0 -42 5.5 -71t23.5 -47.5t52 -27t91 -8.5q60 0 109 6.5t84 14.5q41 10 74 22v830h237v-1055h-174l-28 78q-56 -31 -121 -55q-56 -20 -129.5 -37t-155.5 -17q-155 0 -230 82.5t-75 257.5zM421 1238l408 383q13 -7 29 -19q14 -11 31.5 -28t39.5 -43 q19 -23 29 -42t10 -36q0 -25 -22.5 -50.5t-73.5 -62.5q-14 -10 -36 -25t-49 -33t-57 -37.5t-59 -38.5q-69 -45 -147 -95z" />
<glyph unicode="&#xfb;" horiz-adv-x="1245" d="M166 309v746h237v-719q0 -42 5.5 -71t23.5 -47.5t52 -27t91 -8.5q60 0 109 6.5t84 14.5q41 10 74 22v830h237v-1055h-174l-28 78q-56 -31 -121 -55q-56 -20 -129.5 -37t-155.5 -17q-155 0 -230 82.5t-75 257.5zM239 1194l154 276q22 40 44 66t48.5 41.5t59.5 21.5t77 6 t77 -6t59.5 -21.5t49 -41.5t44.5 -66l153 -276l-113 -74l-270 327l-270 -327z" />
<glyph unicode="&#xfc;" horiz-adv-x="1245" d="M166 309v746h237v-719q0 -42 5.5 -71t23.5 -47.5t52 -27t91 -8.5q60 0 109 6.5t84 14.5q41 10 74 22v830h237v-1055h-174l-28 78q-56 -31 -121 -55q-56 -20 -129.5 -37t-155.5 -17q-155 0 -230 82.5t-75 257.5zM245 1200q0 42 5.5 69t21.5 42t42.5 20.5t67.5 5.5t68 -5.5 t42.5 -20.5t21.5 -42t6 -69q0 -41 -6 -67.5t-21.5 -42.5t-42.5 -22t-68 -6t-67.5 6t-42.5 22t-21.5 42.5t-5.5 67.5zM669 1200q0 42 5.5 69t21.5 42t42.5 20.5t67.5 5.5t68 -5.5t42.5 -20.5t21.5 -42t6 -69q0 -41 -6 -67.5t-21.5 -42.5t-42.5 -22t-68 -6t-67.5 6t-42.5 22 t-21.5 42.5t-5.5 67.5z" />
<glyph unicode="&#xfd;" horiz-adv-x="1089" d="M12 1055h264l271 -846h8l272 846h262l-452 -1274q-28 -78 -57.5 -131.5t-64 -86.5t-75 -48t-88.5 -15q-55 0 -96.5 5t-70.5 12q-33 8 -58 18v164q14 -2 32 -3q31 -3 93 -3q34 0 59.5 7t44 23t33 40t27.5 59l65 178h-102zM368 1238l408 383q13 -7 29 -19q14 -11 31.5 -28 t39.5 -43q19 -23 29 -42t10 -36q0 -25 -22.5 -50.5t-73.5 -62.5q-14 -10 -36 -25t-49 -33t-57 -37.5t-59 -38.5q-69 -45 -147 -95z" />
<glyph unicode="&#xfe;" horiz-adv-x="1228" d="M166 -485v2039h237v-544q47 20 102 37q48 14 112 26t139 12q106 0 175.5 -37.5t110.5 -109t57.5 -174t16.5 -232.5q0 -156 -25 -263t-72 -174t-116.5 -96.5t-157.5 -29.5q-61 0 -115.5 12t-99 28.5t-77.5 34t-50 28.5v-557h-237zM403 238q32 -16 73 -28q35 -11 84 -19.5 t110 -8.5q60 0 98 17.5t59.5 57t30 104t8.5 159.5q0 106 -7 174.5t-29.5 108.5t-66 55.5t-116.5 15.5q-46 0 -89 -6t-78 -13q-40 -9 -77 -19v-598z" />
<glyph unicode="&#xff;" horiz-adv-x="1089" d="M12 1055h264l271 -846h8l272 846h262l-452 -1274q-28 -78 -57.5 -131.5t-64 -86.5t-75 -48t-88.5 -15q-55 0 -96.5 5t-70.5 12q-33 8 -58 18v164q14 -2 32 -3q31 -3 93 -3q34 0 59.5 7t44 23t33 40t27.5 59l65 178h-102zM177 1218q0 42 5.5 69t21.5 42t42.5 20.5 t67.5 5.5t68 -5.5t42.5 -20.5t21.5 -42t6 -69q0 -41 -6 -67.5t-21.5 -42.5t-42.5 -22t-68 -6t-67.5 6t-42.5 22t-21.5 42.5t-5.5 67.5zM601 1218q0 42 5.5 69t21.5 42t42.5 20.5t67.5 5.5t68 -5.5t42.5 -20.5t21.5 -42t6 -69q0 -41 -6 -67.5t-21.5 -42.5t-42.5 -22t-68 -6 t-67.5 6t-42.5 22t-21.5 42.5t-5.5 67.5z" />
<glyph unicode="&#x152;" horiz-adv-x="1968" d="M115 725q0 148 24 259.5t65.5 191.5t96 132t116.5 83t127.5 43t127.5 12q54 0 113 -3t109 -7q58 -4 114 -9h852v-223h-619v-375h518v-219h-518v-387h635v-223h-875q-54 -4 -110 -8q-48 -3 -106.5 -5.5t-112.5 -2.5q-66 0 -133.5 12t-129.5 43.5t-115.5 85t-93 135.5 t-62.5 196.5t-23 268.5zM365 727q0 -125 17 -212t47 -145t70 -91t87 -49.5t98 -20.5t102 -4h215v1012q-42 3 -98 3.5t-121 0.5q-51 0 -101.5 -3.5t-97 -19t-86.5 -47t-69.5 -86.5t-46 -137.5t-16.5 -200.5z" />
<glyph unicode="&#x153;" horiz-adv-x="1835" d="M94 528q0 134 28.5 237.5t89 174.5t154 108t224.5 37q134 0 231 -41.5t150 -121.5q36 45 79.5 76t92.5 50.5t101.5 28t105.5 8.5q121 0 200.5 -33t126.5 -92.5t66 -142.5t19 -183q0 -47 -3.5 -97t-9.5 -103h-659q1 -64 15 -111.5t47 -79t88 -47.5t138 -16q70 0 131 3.5 t107 8.5q54 5 98 13v-168q-51 -18 -111 -32q-51 -12 -119 -22t-145 -10q-60 0 -116.5 8.5t-106.5 27t-91.5 47.5t-72.5 71q-59 -77 -150 -117.5t-212 -40.5q-131 0 -224.5 37t-154 108t-89 175.5t-28.5 238.5zM338 528q0 -87 10 -153.5t37.5 -112t77 -69t127.5 -23.5 q79 0 129 23.5t78 69t38.5 112t10.5 153.5q0 86 -10.5 152.5t-38.5 112t-78 69t-129 23.5q-78 0 -127.5 -23.5t-77 -69t-37.5 -112t-10 -152.5zM1087 612h455v39q0 60 -7.5 104t-30 73t-65 43t-112.5 14q-75 0 -122 -17.5t-73.5 -52t-35.5 -85.5t-9 -118z" />
<glyph unicode="&#x178;" horiz-adv-x="1221" d="M0 1427h281l327 -622h4l328 622h281l-492 -876v-551h-237v551zM233 1691q0 47 6.5 76.5t24 46.5t47 23t74.5 6q46 0 76 -6t47 -23t24 -46.5t7 -76.5q0 -46 -7 -75.5t-24 -47t-47 -24t-76 -6.5q-45 0 -74.5 6.5t-47 24t-24 47t-6.5 75.5zM698 1691q0 47 6.5 76.5t24 46.5 t47 23t74.5 6q46 0 76 -6t47 -23t24 -46.5t7 -76.5q0 -46 -7 -75.5t-24 -47t-47 -24t-76 -6.5q-45 0 -74.5 6.5t-47 24t-24 47t-6.5 75.5z" />
<glyph unicode="&#x2c6;" horiz-adv-x="868" d="M51 1184l154 276q22 40 44 66t48.5 41.5t59.5 21.5t77 6t77 -6t59.5 -21.5t49 -41.5t44.5 -66l153 -276l-113 -74l-270 327l-270 -327z" />
<glyph unicode="&#x2dc;" horiz-adv-x="938" d="M61 1264q4 33 21.5 70t48.5 68.5t74 53t98 23.5q37 1 69 -7.5t61 -21t55.5 -28t51.5 -28t50 -21t51 -7.5q32 2 55.5 16t39.5 31q18 19 32 45l109 -69q-4 -33 -22.5 -70t-49 -68.5t-73.5 -53t-97 -23.5t-101 15.5t-88.5 39.5t-78.5 40t-70 17q-33 -2 -57 -16.5t-40 -31.5 q-18 -20 -30 -44z" />
<glyph unicode="&#x2000;" horiz-adv-x="1002" />
<glyph unicode="&#x2001;" horiz-adv-x="2005" />
<glyph unicode="&#x2002;" horiz-adv-x="1002" />
<glyph unicode="&#x2003;" horiz-adv-x="2005" />
<glyph unicode="&#x2004;" horiz-adv-x="668" />
<glyph unicode="&#x2005;" horiz-adv-x="501" />
<glyph unicode="&#x2006;" horiz-adv-x="334" />
<glyph unicode="&#x2007;" horiz-adv-x="334" />
<glyph unicode="&#x2008;" horiz-adv-x="250" />
<glyph unicode="&#x2009;" horiz-adv-x="401" />
<glyph unicode="&#x200a;" horiz-adv-x="111" />
<glyph unicode="&#x2010;" horiz-adv-x="794" d="M60 475v227h674v-227h-674z" />
<glyph unicode="&#x2011;" horiz-adv-x="794" d="M60 475v227h674v-227h-674z" />
<glyph unicode="&#x2012;" horiz-adv-x="794" d="M60 475v227h674v-227h-674z" />
<glyph unicode="&#x2013;" horiz-adv-x="1140" d="M60 475v227h1020v-227h-1020z" />
<glyph unicode="&#x2014;" horiz-adv-x="2166" d="M60 475v227h2046v-227h-2046z" />
<glyph unicode="&#x2018;" horiz-adv-x="508" d="M94 1230q0 75 23 150.5t56.5 140t71.5 112.5t67 66l90 -65q-22 -30 -42 -68t-36 -80t-26 -85t-11 -82q60 -8 86.5 -40.5t26.5 -105.5q0 -45 -7 -75t-24.5 -47.5t-46.5 -24.5t-74 -7q-51 0 -81.5 14.5t-46.5 41.5t-21 66t-5 89z" />
<glyph unicode="&#x2019;" horiz-adv-x="508" d="M101 1014q22 30 42 68t36 80t26 85t11 82q-60 8 -86.5 40.5t-26.5 105.5q0 45 7 75t24.5 47.5t46.5 24.5t74 7q51 0 81.5 -14.5t46.5 -41.5t21 -66t5 -89q0 -75 -23 -150.5t-56.5 -140t-71.5 -112.5t-67 -66z" />
<glyph unicode="&#x201a;" horiz-adv-x="508" d="M101 -334q22 30 42 68t36 80t26 85t11 82q-60 8 -86.5 40.5t-26.5 105.5q0 45 7 75t24.5 47.5t46.5 24.5t74 7q51 0 81.5 -14.5t46.5 -41.5t21 -66t5 -89q0 -75 -23 -150.5t-56.5 -140t-71.5 -112.5t-67 -66z" />
<glyph unicode="&#x201c;" horiz-adv-x="1026" d="M104 1230q0 75 23 150.5t56.5 140t71.5 112.5t67 66l90 -65q-22 -30 -42 -68t-36 -80t-26 -85t-11 -82q60 -8 86.5 -40.5t26.5 -105.5q0 -45 -7 -75t-24.5 -47.5t-46.5 -24.5t-74 -7q-51 0 -81.5 14.5t-46.5 41.5t-21 66t-5 89zM571 1230q0 75 23 150.5t56.5 140 t71.5 112.5t67 66l90 -65q-22 -30 -42 -68t-36 -80t-26 -85t-11 -82q60 -8 86.5 -40.5t26.5 -105.5q0 -45 -7 -75t-24.5 -47.5t-46.5 -24.5t-74 -7q-51 0 -81.5 14.5t-46.5 41.5t-21 66t-5 89z" />
<glyph unicode="&#x201d;" horiz-adv-x="1026" d="M141 1009q22 30 42 68t36 80t26 85t11 82q-60 8 -86.5 40.5t-26.5 105.5q0 45 7 75t24.5 47.5t46.5 24.5t74 7q51 0 81.5 -14.5t46.5 -41.5t21 -66t5 -89q0 -75 -23 -150.5t-56.5 -140t-71.5 -112.5t-67 -66zM608 1009q22 30 42 68t36 80t26 85t11 82q-60 8 -86.5 40.5 t-26.5 105.5q0 45 7 75t24.5 47.5t46.5 24.5t74 7q51 0 81.5 -14.5t46.5 -41.5t21 -66t5 -89q0 -75 -23 -150.5t-56.5 -140t-71.5 -112.5t-67 -66z" />
<glyph unicode="&#x201e;" horiz-adv-x="1026" d="M141 -341q22 30 42 68t36 80t26 85t11 82q-60 8 -86.5 40.5t-26.5 105.5q0 45 7 75t24.5 47.5t46.5 24.5t74 7q51 0 81.5 -14.5t46.5 -41.5t21 -66t5 -89q0 -75 -23 -150.5t-56.5 -140t-71.5 -112.5t-67 -66zM608 -341q22 30 42 68t36 80t26 85t11 82q-60 8 -86.5 40.5 t-26.5 105.5q0 45 7 75t24.5 47.5t46.5 24.5t74 7q51 0 81.5 -14.5t46.5 -41.5t21 -66t5 -89q0 -75 -23 -150.5t-56.5 -140t-71.5 -112.5t-67 -66z" />
<glyph unicode="&#x2022;" horiz-adv-x="689" d="M102 569q0 68 10.5 111.5t36 69t69 35.5t108.5 10q67 0 111 -10t70 -35.5t36 -69t10 -111.5q0 -67 -10 -110.5t-36 -69t-70 -35.5t-111 -10q-65 0 -108.5 10t-69 35.5t-36 69t-10.5 110.5z" />
<glyph unicode="&#x2026;" horiz-adv-x="1412" d="M102 119q0 40 6 65.5t21.5 40.5t41 21t64.5 6q40 0 66 -6t41.5 -21t21.5 -40.5t6 -65.5t-6 -66t-21.5 -41.5t-41.5 -21.5t-66 -6q-39 0 -64.5 6t-41 21.5t-21.5 41.5t-6 66zM575 119q0 40 6 65.5t21.5 40.5t41 21t64.5 6q40 0 66 -6t41.5 -21t21.5 -40.5t6 -65.5t-6 -66 t-21.5 -41.5t-41.5 -21.5t-66 -6q-39 0 -64.5 6t-41 21.5t-21.5 41.5t-6 66zM1042 119q0 40 6 65.5t21.5 40.5t41 21t64.5 6q40 0 66 -6t41.5 -21t21.5 -40.5t6 -65.5t-6 -66t-21.5 -41.5t-41.5 -21.5t-66 -6q-39 0 -64.5 6t-41 21.5t-21.5 41.5t-6 66z" />
<glyph unicode="&#x202f;" horiz-adv-x="401" />
<glyph unicode="&#x2039;" horiz-adv-x="684" d="M113 401v287l457 316v-273l-273 -174v-25l273 -174v-272z" />
<glyph unicode="&#x203a;" horiz-adv-x="684" d="M113 86v272l273 174v25l-273 174v273l457 -316v-287z" />
<glyph unicode="&#x205f;" horiz-adv-x="501" />
<glyph unicode="&#x20ac;" horiz-adv-x="1237" d="M72 466v175h143q-1 20 -1.5 41t-0.5 43q0 52 3 100h-144v174h168q20 91 54 160t77 120t94 85t106 54.5t112 29t112 8.5q100 0 171 -11t117 -24q54 -16 89 -35v-180q-41 7 -88 13q-40 5 -92 9.5t-107 4.5q-70 0 -131.5 -6.5t-111 -30t-87 -70t-59.5 -127.5h536v-174h-562 q-3 -47 -3 -98v-44.5t2 -41.5h563v-175h-542q21 -94 59 -148.5t89.5 -82t115 -35t135.5 -7.5q66 0 119.5 4t92.5 9q45 5 81 13v-182q-43 -19 -104 -34q-52 -13 -128 -23.5t-176 -10.5q-89 0 -175 22t-158.5 78t-127 152t-80.5 245h-161z" />
<glyph unicode="&#x2122;" horiz-adv-x="1872" d="M192 1260v167h633v-167h-229v-484h-176v484h-228zM937 776v651h292l73 -337h12q2 18 5 39q2 18 6 42t11 50l49 206h295v-651h-172v510h-12q-1 -8 -3 -19q-3 -19 -12 -53l-67 -262h-211l-68 252q-4 12 -6 24.5t-4 22.5q-2 11 -4 23h-12v-498h-172z" />
<glyph unicode="&#xe000;" horiz-adv-x="1055" d="M0 0v1055h1055v-1055h-1055z" />
</font>
</defs>
</svg>
